<svg xmlns="http://www.w3.org/2000/svg" fill="none" viewBox="40.82 49.25 937.75 590.02">
 <g>
  <title>Layer 1</title>
  <path d="m482.397,109.664c4.073,-2.456 8.456,-4.357 13.034,-5.653l2.675,-12.8964l21.787,-0.3841l3.128,12.7875c4.619,1.142 9.067,2.89 13.227,5.199l10.976,-7.216l15.668,15.092l-6.86,11.264c2.461,4.068 4.366,8.447 5.666,13.02l12.883,2.744l0.384,21.774l-12.787,3.142c-1.136,4.616 -2.884,9.06 -5.199,13.212l7.216,10.976l-15.092,15.682l-11.25,-6.86c-4.072,2.463 -8.456,4.369 -13.034,5.666l-2.744,12.897l-21.788,0.384l-3.128,-12.801c-4.621,-1.135 -9.069,-2.884 -13.226,-5.199l-10.976,7.216l-15.668,-15.092l6.86,-11.25c-2.455,-4.071 -4.36,-8.449 -5.666,-13.02l-12.884,-2.744l-0.384,-21.788l12.787,-3.128c1.134,-4.617 2.883,-9.061 5.2,-13.212l-7.216,-10.976l15.16,-15.6l11.251,6.86l0,-0.096zm11.62,29.018c-3.196,3.321 -5.336,7.515 -6.151,12.052c-0.814,4.537 -0.266,9.214 1.576,13.44c1.842,4.225 4.894,7.811 8.772,10.303c3.878,2.492 8.407,3.779 13.016,3.698c4.609,-0.08 9.091,-1.524 12.879,-4.15c3.789,-2.626 6.715,-6.315 8.408,-10.603c1.693,-4.287 2.078,-8.98 1.106,-13.486c-0.972,-4.506 -3.258,-8.622 -6.568,-11.83c-2.204,-2.137 -4.809,-3.817 -7.664,-4.945c-2.855,-1.127 -5.905,-1.68 -8.974,-1.627c-3.07,0.054 -6.098,0.713 -8.912,1.939c-2.815,1.227 -5.359,2.997 -7.488,5.209z" fill="#E0E0E0" id="svg_1"/>
  <path d="m371.951,61.9459c2.726,-1.6473 5.661,-2.9209 8.726,-3.7867l1.797,-8.6436l14.598,-0.2607l2.099,8.575c3.096,0.7638 6.077,1.9357 8.863,3.4849l7.382,-4.8432l10.509,10.1528l-4.582,7.5323c1.649,2.7315 2.927,5.6706 3.8,8.7396l8.63,1.7973l0.261,14.5981l-8.575,2.0993c-0.76,3.097 -1.932,6.078 -3.485,8.863l4.843,7.381l-10.139,10.496l-7.546,-4.569c-2.727,1.645 -5.662,2.919 -8.726,3.787l-1.811,8.644l-14.598,0.26l-2.099,-8.575c-3.091,-0.764 -6.067,-1.935 -8.85,-3.484l-7.381,4.843l-10.509,-10.153l4.582,-7.532c-1.649,-2.732 -2.927,-5.671 -3.8,-8.74l-8.644,-1.797l-0.178,-14.5984l8.561,-2.0992c0.766,-3.0949 1.938,-6.0751 3.485,-8.8631l-4.83,-7.3814l10.139,-10.4958l7.546,4.5688l-0.068,0zm7.779,19.4549c-2.147,2.2351 -3.583,5.0569 -4.127,8.1083c-0.543,3.0515 -0.169,6.1955 1.074,9.0345c1.244,2.8394 3.302,5.2454 5.914,6.9144c2.611,1.669 5.659,2.526 8.758,2.463c3.099,-0.063 6.109,-1.044 8.65,-2.819c2.542,-1.774 4.499,-4.263 5.626,-7.1503c1.127,-2.8874 1.372,-6.0441 0.704,-9.0708c-0.668,-3.0267 -2.218,-5.7874 -4.455,-7.9328c-1.483,-1.4251 -3.233,-2.5439 -5.149,-3.2925c-1.915,-0.7486 -3.96,-1.1123 -6.017,-1.0702c-2.056,0.042 -4.084,0.489 -5.968,1.3152c-1.884,0.8263 -3.586,2.0157 -5.01,3.5002z" fill="#EBEBEB" id="svg_2"/>
  <path d="m854.536,320.417c2.726,-1.651 5.661,-2.929 8.726,-3.801l1.797,-8.643l14.598,-0.247l2.1,8.561c3.095,0.766 6.075,1.938 8.863,3.485l7.381,-4.83l10.496,10.139l-4.569,7.546c1.647,2.726 2.921,5.661 3.787,8.726l8.643,1.798l0.261,14.598l-8.575,2.099c-0.764,3.096 -1.936,6.076 -3.485,8.863l4.83,7.381l-10.139,10.51l-7.546,-4.583c-2.726,1.651 -5.661,2.929 -8.726,3.801l-1.798,8.63l-14.598,0.26l-2.099,-8.575c-3.097,-0.76 -6.078,-1.932 -8.863,-3.484l-7.381,4.843l-10.496,-10.194l4.569,-7.546c-1.648,-2.731 -2.921,-5.671 -3.787,-8.74l-8.644,-1.797l-0.26,-14.598l8.575,-2.099c0.764,-3.092 1.935,-6.068 3.484,-8.85l-4.843,-7.381l10.153,-10.51l7.546,4.583l0,0.055zm7.779,19.441c-2.149,2.227 -3.591,5.042 -4.141,8.088c-0.55,3.047 -0.185,6.188 1.05,9.027c1.234,2.839 3.283,5.248 5.887,6.922c2.603,1.675 5.645,2.54 8.74,2.486c3.095,-0.053 6.105,-1.023 8.649,-2.787c2.544,-1.764 4.507,-4.243 5.643,-7.123c1.135,-2.88 1.391,-6.032 0.736,-9.057c-0.656,-3.026 -2.194,-5.789 -4.42,-7.94c-1.478,-1.43 -3.224,-2.554 -5.138,-3.308c-1.913,-0.755 -3.957,-1.125 -6.013,-1.089c-2.057,0.036 -4.086,0.476 -5.972,1.297c-1.886,0.82 -3.592,2.004 -5.021,3.484z" fill="#EBEBEB" id="svg_3"/>
  <path d="m611.666,70.1912c3.003,-1.7962 6.233,-3.1806 9.604,-4.116l1.976,-9.4668l15.984,-0.2744l2.305,9.3845c3.388,0.8351 6.65,2.1178 9.7,3.8141l8.081,-5.2959l11.497,11.0995l-5.007,8.232c1.788,3.0065 3.172,6.2356 4.116,9.604l9.453,1.9757l0.288,15.9841l-9.385,2.305c-0.835,3.388 -2.118,6.65 -3.814,9.7l5.296,8.081l-11.113,11.497l-8.232,-5.008c-3.004,1.793 -6.234,3.178 -9.604,4.116l-1.962,9.467l-15.998,0.275l-2.291,-9.385c-3.39,-0.83 -6.652,-2.113 -9.7,-3.814l-8.081,5.296l-11.511,-11.113l5.008,-8.232c-1.793,-3.004 -3.178,-6.234 -4.116,-9.604l-9.453,-1.962l-0.289,-15.9842l9.399,-2.3049c0.829,-3.3903 2.112,-6.6531 3.814,-9.7001l-5.296,-8.0811l11.099,-11.4973l8.232,5.0078zm8.479,21.2934c-2.355,2.4405 -3.933,5.5245 -4.536,8.8624c-0.602,3.337 -0.202,6.779 1.151,9.889c1.353,3.109 3.598,5.748 6.451,7.583c2.853,1.834 6.185,2.781 9.576,2.722c3.391,-0.06 6.688,-1.123 9.475,-3.056c2.787,-1.933 4.937,-4.649 6.181,-7.805c1.243,-3.155 1.523,-6.609 0.803,-9.9231c-0.719,-3.3144 -2.405,-6.3411 -4.844,-8.6976c-3.274,-3.1581 -7.668,-4.8872 -12.216,-4.8075c-4.549,0.0798 -8.879,1.9619 -12.041,5.2328z" fill="#F5F5F5" id="svg_4"/>
  <path d="m190.104,195.016l-76.598,-20.251c-1.258,-0.333 -2.438,-0.911 -3.472,-1.7c-1.035,-0.789 -1.904,-1.774 -2.557,-2.899c-0.654,-1.125 -1.079,-2.368 -1.253,-3.657c-0.173,-1.29 -0.09,-2.601 0.243,-3.859l27.989,-106.014c0.673,-2.5406 2.327,-4.7102 4.598,-6.0325c2.272,-1.3222 4.975,-1.6889 7.517,-1.0196l48.569,12.8419l27.385,48.7062l-20.306,76.832c-0.332,1.259 -0.908,2.44 -1.697,3.476c-0.788,1.036 -1.773,1.906 -2.898,2.561c-1.126,0.655 -2.369,1.082 -3.659,1.256c-1.29,0.174 -2.602,0.092 -3.861,-0.241z" fill="#EBEBEB" id="svg_5"/>
  <path d="m195.167,62.4258l-7.889,29.841c-0.619,2.3632 -0.277,4.8755 0.953,6.9867c1.229,2.1115 3.245,3.6495 5.605,4.2775l28.689,7.601l-27.358,-48.7062z" fill="#F5F5F5" id="svg_6"/>
  <path d="m186.989,94.9834c0,0 -2.292,7.1346 5.309,11.6896c0.287,0.174 0.585,0.33 0.892,0.466c3.567,1.66 27.07,12.568 27.221,11.992c0.151,-0.577 2.113,-7.999 2.113,-7.999l-28.689,-7.587c0,0 -7.093,-2.141 -6.846,-8.5616z" fill="#E0E0E0" id="svg_7"/>
  <path d="m181.188,89.3443c-0.11,0.3842 -8.122,-1.372 -17.836,-3.9788c-9.714,-2.6068 -17.63,-4.9941 -17.534,-5.3782c0.096,-0.3842 8.122,1.372 17.836,3.9788c9.714,2.6068 17.63,4.994 17.534,5.3782z" fill="#FAFAFA" id="svg_8"/>
  <path d="m199.614,112.271c-0.11,0.384 -13.24,-2.744 -29.347,-7.011c-16.107,-4.267 -29.073,-8.0265 -28.949,-8.4107c0.123,-0.3842 13.24,2.744 29.347,7.0107c16.107,4.267 29.045,8.026 28.949,8.411z" fill="#FAFAFA" id="svg_9"/>
  <path d="m201.135,127.747c-0.096,0.385 -14.406,-3.073 -31.968,-7.71c-17.562,-4.638 -31.707,-8.712 -31.556,-9.097c0.151,-0.384 14.406,3.06 31.968,7.711c17.561,4.651 31.665,8.712 31.556,9.096z" fill="#FAFAFA" id="svg_10"/>
  <path d="m197.568,141.028c-0.096,0.384 -14.406,-3.06 -31.968,-7.697c-17.561,-4.638 -31.707,-8.713 -31.556,-9.097c0.151,-0.384 14.406,3.06 31.968,7.697c17.561,4.638 31.72,8.712 31.556,9.097z" fill="#FAFAFA" id="svg_11"/>
  <path d="m194.111,154.322c-0.096,0.385 -14.406,-3.073 -31.968,-7.71c-17.561,-4.638 -31.707,-8.712 -31.556,-9.097c0.151,-0.384 14.406,3.074 31.968,7.711c17.561,4.637 31.665,8.712 31.556,9.096z" fill="#FAFAFA" id="svg_12"/>
  <path d="m190.596,167.618c-0.096,0.384 -14.42,-3.074 -31.968,-7.711c-17.548,-4.637 -31.707,-8.712 -31.556,-9.096c0.151,-0.385 14.406,3.059 31.968,7.71c17.561,4.651 31.665,8.712 31.556,9.097z" fill="#FAFAFA" id="svg_13"/>
  <path d="m75.8183,509.012c-5.9219,-3.712 -12.6139,-6.021 -19.5647,-6.75c-3.2105,-0.329 -6.7228,-0.233 -9.3022,1.715c-0.2941,0.174 -0.5366,0.424 -0.7029,0.723c-0.1663,0.299 -0.2504,0.636 -0.2437,0.978c0.1466,0.484 0.4698,0.896 0.9055,1.153c7.985,6.105 20.0861,6.86 28.9766,2.195" fill="#E0E0E0" id="svg_14"/>
  <path d="m75.3226,508.477c-4.5549,-3.337 -8.8022,-7.074 -12.691,-11.168c-3.9084,-4.111 -6.6546,-9.187 -7.9576,-14.708c-0.2555,-0.818 -0.3313,-1.681 -0.2224,-2.531c0.1089,-0.85 0.4001,-1.667 0.8535,-2.394c10.1117,7.903 18.0555,18.11 20.0175,30.801z" fill="#E0E0E0" id="svg_15"/>
  <path d="m75.7219,509.012c-0.9458,-5.519 -0.8667,-11.166 0.2332,-16.656c1.13,-5.527 4.2992,-10.425 8.8769,-13.72c1.7424,4.116 0.9878,8.781 -0.247,13.061c-1.9085,6.61 -4.8787,12.866 -8.7945,18.522" fill="#E0E0E0" id="svg_16"/>
  <path d="m85.6245,526.711c-6.0094,0.741 -11.2504,3.91 -15.7506,7.985c-4.517,4.115 -7.6632,9.517 -9.014,15.476c5.9133,-0.37 10.976,-4.527 14.5432,-9.192c3.5672,-4.665 6.1465,-9.796 10.139,-14.159" fill="#E0E0E0" id="svg_17"/>
  <path d="m87.8094,529.592c-2.3671,-6.017 -3.1964,-12.529 -2.4131,-18.946c0.7834,-6.418 3.1548,-12.539 6.8995,-17.81c3.43,12.197 2.1678,25.972 -4.4864,36.756z" fill="#E0E0E0" id="svg_18"/>
  <path d="m100.883,545.151c-5.4889,-0.326 -10.9529,0.966 -15.7156,3.714c-4.7626,2.748 -8.6147,6.833 -11.0793,11.748c-0.3293,0.673 -0.6311,1.523 -0.1784,2.113c0.2324,0.226 0.5164,0.391 0.8272,0.482c0.3108,0.091 0.6391,0.104 0.9564,0.04c5.2959,-0.343 9.9882,-3.526 13.8572,-7.149c3.869,-3.622 7.2442,-7.82 11.5245,-10.976" fill="#E0E0E0" id="svg_19"/>
  <path d="m100.471,544.299c-2.8277,-9.077 -3.0039,-18.773 -0.5079,-27.947c0.9879,-3.595 2.6339,-7.382 5.9679,-9.069c0.133,-0.087 0.281,-0.145 0.437,-0.171c0.156,-0.026 0.316,-0.019 0.469,0.02c0.136,0.064 0.257,0.156 0.356,0.269c0.1,0.114 0.174,0.246 0.22,0.39c1.112,2.521 1.584,5.278 1.372,8.026c-0.195,2.733 -0.617,5.445 -1.262,8.108c-1.043,4.967 -1.605,10.29 -4.322,14.571c-0.627,1.032 -1.186,2.105 -1.674,3.21c-0.521,1.084 -0.521,1.468 -0.988,2.333" fill="#E0E0E0" id="svg_20"/>
  <path d="m135.143,549.472c-2.566,-9.768 0.151,-21.622 6.311,-29.621c0.453,-0.59 1.057,-1.235 1.797,-1.166c1.139,0.109 1.372,1.619 1.372,2.744c-0.462,10.048 -3.748,19.763 -9.48,28.03" fill="#E0E0E0" id="svg_21"/>
  <path d="m138.268,551.613c6.063,1.427 12.363,1.523 18.467,0.282c6.103,-1.241 11.866,-3.79 16.89,-7.472c-5.934,-2.995 -12.726,-3.83 -19.208,-2.36c-6.394,1.468 -12.238,4.336 -16.217,9.604" fill="#E0E0E0" id="svg_22"/>
  <path d="m140.903,545.109c6.64,-10.852 19.386,-17.918 32.091,-18.563c-1.454,5.159 -5.708,9.179 -10.496,11.607c-4.788,2.428 -10.139,3.485 -15.407,4.5c-2.045,0.398 -4.857,0.837 -6.188,2.456z" fill="#E0E0E0" id="svg_23"/>
  <path d="m135.826,513.526c2.017,-6.107 3.396,-12.406 4.116,-18.797c0.494,-6.407 -0.411,-13.089 -3.745,-18.59c-6.202,12.018 -6.86,26.068 -0.549,38.032" fill="#E0E0E0" id="svg_24"/>
  <path d="m156.708,502.962c7.257,-13.199 22.075,-23.75 37.044,-25.218c-5.777,14.392 -21.555,25.533 -37.044,25.218z" fill="#E0E0E0" id="svg_25"/>
  <path d="m152.141,505.554c10.825,1.647 20.059,8.561 30.184,12.76c2.128,1.047 4.493,1.52 6.86,1.372c1.168,-0.102 2.28,-0.547 3.196,-1.28c0.915,-0.732 1.593,-1.719 1.949,-2.836c0.156,-0.965 0.073,-1.953 -0.24,-2.878c-0.313,-0.925 -0.848,-1.76 -1.557,-2.432c-1.436,-1.32 -3.119,-2.341 -4.953,-3.005c-10.976,-4.582 -22.858,-4.705 -34.465,-1.92" fill="#E0E0E0" id="svg_26"/>
  <path d="m145.871,513.128c2.456,0.713 3.293,1.975 5.227,3.636c6.631,5.622 14.466,9.645 22.899,11.758c0.864,0.205 2.017,0.301 2.456,-0.494c0.439,-0.796 -0.11,-1.523 -0.604,-2.141c-3.679,-4.312 -8.451,-7.554 -13.816,-9.384c-5.282,-1.962 -9.851,-4.336 -16.162,-3.828" fill="#E0E0E0" id="svg_27"/>
  <path d="m138.806,467.262c4.441,4.094 9.688,7.215 15.406,9.162c5.718,1.946 11.78,2.677 17.796,2.144c0.552,0.002 1.088,-0.192 1.509,-0.549c0.837,-0.906 -0.164,-2.319 -1.138,-3.074c-9.769,-7.614 -21.596,-10.77 -33.573,-7.683z" fill="#E0E0E0" id="svg_28"/>
  <path d="m147.188,464.189c5.877,-4.331 12.694,-7.209 19.895,-8.401c7.201,-1.193 14.582,-0.665 21.54,1.541c-5.421,5.024 -12.376,8.078 -19.743,8.671c-7.283,0.659 -14.624,0.037 -21.692,-1.839" fill="#E0E0E0" id="svg_29"/>
  <path d="m143.855,443.156c-0.96,-9.755 -0.343,-17.438 -1.015,-27.234c0,-0.782 -0.219,-1.729 -0.96,-2.003c-1.016,-0.398 -1.866,0.85 -2.195,1.893c-1.428,4.536 -1.799,9.338 -1.085,14.039c0.713,4.701 2.492,9.177 5.201,13.085" fill="#E0E0E0" id="svg_30"/>
  <path d="m143.153,444.186c6.361,-4.117 11.845,-9.451 16.135,-15.696c3.196,-4.363 5.885,-9.604 5.158,-14.941c-2.245,0.062 -4.45,0.612 -6.462,1.611c-2.011,1 -3.781,2.426 -5.186,4.179c-2.778,3.529 -4.8,7.592 -5.941,11.936c-1.289,4.294 -2.195,8.699 -3.704,12.911z" fill="#E0E0E0" id="svg_31"/>
  <path d="m159.015,439.781c14.529,-5.384 27.981,-13.32 39.719,-23.434c-4.747,-1.907 -10.18,-0.768 -14.913,1.153c-10.771,4.079 -19.671,11.968 -25.012,22.171" fill="#E0E0E0" id="svg_32"/>
  <path d="m147.613,449.522c7.326,0.796 14.776,1.372 22.062,0.096c7.285,-1.276 13.912,-4.02 20.58,-6.86c0.572,-0.178 1.059,-0.559 1.372,-1.07c0.102,-0.31 0.108,-0.643 0.017,-0.956c-0.09,-0.314 -0.273,-0.593 -0.525,-0.8c-0.514,-0.406 -1.115,-0.688 -1.756,-0.823c-7.258,-2.031 -15.092,-1.084 -22.254,1.372c-6.813,2.322 -13.362,5.357 -19.537,9.055" fill="#E0E0E0" id="svg_33"/>
  <path d="m105.74,467.592c-5.008,-10.098 -4.679,-21.884 -0.357,-32.297c3.005,4.637 3.403,10.606 2.854,16.094c-0.549,5.488 -2.236,11.195 -2.346,16.738" fill="#E0E0E0" id="svg_34"/>
  <path d="m85.7502,457.521c-6.265,-0.086 -12.479,1.137 -18.2438,3.592c-5.7648,2.455 -10.9533,6.087 -15.233,10.663c6.3138,0.753 12.7073,-0.433 18.33,-3.403c5.5774,-2.964 10.8407,-6.485 15.7094,-10.509" fill="#E0E0E0" id="svg_35"/>
  <path d="m72.3043,453.021c-6.1054,-0.494 -11.9913,-1.248 -17.836,0.549c-2.9715,0.828 -5.7293,2.288 -8.0852,4.279c-2.3559,1.991 -4.2545,4.467 -5.5662,7.259c5.7841,0.478 11.5902,-0.612 16.807,-3.155c5.1678,-2.533 10.0992,-5.522 14.7353,-8.932" fill="#E0E0E0" id="svg_36"/>
  <path d="m92.1984,453.227c-5.488,-3.609 -11.1406,-7.272 -17.5342,-8.768c-6.3935,-1.495 -13.8297,-0.384 -18.2887,4.432c5.1861,3.046 11.4699,3.403 17.4793,3.403c6.0093,0 13.377,-0.069 19.0296,1.934" fill="#E0E0E0" id="svg_37"/>
  <path d="m92.239,453.515c-9.3982,-9.234 -12.9654,-25.808 -9.1787,-38.416c7.4099,11.358 10.6535,24.934 9.1787,38.416z" fill="#E0E0E0" id="svg_38"/>
  <path d="m118.086,427.364c1.77,-4.116 3.019,-8.451 4.61,-12.636c1.446,-4.263 3.674,-8.218 6.572,-11.662c2.939,-3.455 7.117,-5.618 11.635,-6.023c-1.446,6.358 -4.203,12.345 -8.094,17.578c-3.89,5.233 -8.83,9.596 -14.503,12.812" fill="#E0E0E0" id="svg_39"/>
  <path d="m113.41,432.812c-2.936,-4.034 -6.325,-9.522 -10.304,-12.527c-3.9785,-3.005 -9.1647,-4.843 -14.0079,-3.677c2.5126,4.406 6.0185,8.165 10.2391,10.978c4.2208,2.813 9.0388,4.602 14.0728,5.226z" fill="#E0E0E0" id="svg_40"/>
  <path d="m114.343,427.708c-2.085,-4.821 -3.622,-9.86 -4.583,-15.024c-0.965,-5.209 -0.138,-10.591 2.347,-15.27c5.158,9.755 6.86,20.223 2.551,30.404" fill="#E0E0E0" id="svg_41"/>
  <path d="m118.13,397.414c2.922,-9.604 11.772,-16.78 21.334,-20.045c1.186,-0.484 2.471,-0.677 3.746,-0.562c0.632,0.07 1.229,0.325 1.717,0.732c0.488,0.408 0.845,0.95 1.027,1.559c0.357,1.646 -1.002,3.128 -2.277,4.212c-7.474,6.381 -16.165,11.179 -25.547,14.104z" fill="#E0E0E0" id="svg_42"/>
  <path d="m118.237,389.511c0.371,-6.229 0.755,-12.554 2.744,-18.468c1.99,-5.913 5.927,-11.442 11.621,-14.035c0.961,6.297 -1.811,12.567 -5.159,17.987c-3.347,5.419 -7.353,10.537 -9.357,16.574" fill="#E0E0E0" id="svg_43"/>
  <path d="m118.088,393.764c-2.428,-7.052 -2.675,-15.997 -6.86,-22.144c-2.949,-4.28 -7.669,-7.203 -10.221,-11.758c-1.5363,4.36 -1.3199,9.146 0.604,13.35c1.914,4.163 4.558,7.95 7.806,11.182c3.087,3.375 5.831,5.886 8.671,9.37z" fill="#E0E0E0" id="svg_44"/>
  <path d="m118.131,601.307c-0.192,0 -0.357,-47.005 -0.357,-104.972c0,-57.967 0.123,-104.985 0.315,-104.985c0.193,0 0.343,46.991 0.357,104.985c0.014,57.995 -0.123,104.972 -0.315,104.972z" fill="#E0E0E0" id="svg_45"/>
  <path d="m159.152,460.498c-0.564,0.288 -1.158,0.513 -1.77,0.672l-4.857,1.633c-4.116,1.372 -9.741,3.43 -15.861,5.927c-6.119,2.497 -11.758,4.706 -15.009,7.532c-1.292,1.083 -2.324,2.443 -3.019,3.979c-0.466,1.111 -0.548,1.784 -0.603,1.77c-0.055,-0.014 0,-0.165 0,-0.494c0.074,-0.466 0.189,-0.925 0.343,-1.372c0.62,-1.638 1.633,-3.099 2.949,-4.253c1.967,-1.656 4.162,-3.019 6.517,-4.048c2.607,-1.207 5.488,-2.483 8.562,-3.745c6.133,-2.511 11.799,-4.459 15.956,-5.749c2.072,-0.645 3.759,-1.125 4.926,-1.44c0.609,-0.19 1.233,-0.328 1.866,-0.412z" fill="#E0E0E0" id="svg_46"/>
  <path d="m172.665,427.433c-0.144,0.192 -0.31,0.367 -0.494,0.521l-1.509,1.372l-5.625,5.104l-18.742,16.697c-7.313,6.503 -13.637,12.732 -18.028,17.411c-2.181,2.346 -3.91,4.28 -5.09,5.639l-1.372,1.55c-0.316,0.357 -0.48,0.535 -0.508,0.521c0.115,-0.215 0.253,-0.418 0.412,-0.603c0.274,-0.384 0.7,-0.947 1.262,-1.647c1.112,-1.372 2.744,-3.389 4.953,-5.776c5.653,-6.184 11.634,-12.061 17.918,-17.603c7.341,-6.503 14.022,-12.348 18.879,-16.546l5.763,-4.953l1.591,-1.372c0.184,-0.128 0.382,-0.234 0.59,-0.315z" fill="#E0E0E0" id="svg_47"/>
  <path d="m138.395,457.795c-0.192,-0.082 1.372,-3.608 2.868,-8.067c1.495,-4.459 2.25,-8.232 2.442,-8.232c-0.153,2.886 -0.764,5.73 -1.811,8.424c-0.647,1.921 -1.403,3.804 -2.264,5.639c-0.299,0.802 -0.715,1.556 -1.235,2.236z" fill="#E0E0E0" id="svg_48"/>
  <path d="m118.172,486.25c-0.424,-0.415 -0.801,-0.875 -1.125,-1.372l-2.895,-3.704c-2.414,-3.142 -5.776,-7.464 -9.604,-12.211c-3.828,-4.747 -7.2164,-8.987 -9.7134,-12.06l-2.9087,-3.581c-0.3959,-0.412 -0.7371,-0.873 -1.0153,-1.372c0.4409,0.372 0.8451,0.786 1.2074,1.235c0.7546,0.809 1.8248,2.017 3.1282,3.512c2.593,2.991 6.1188,7.203 9.8788,11.95c3.759,4.748 7.065,9.124 9.384,12.348c1.166,1.606 2.099,2.909 2.744,3.828c0.356,0.442 0.664,0.92 0.919,1.427z" fill="#E0E0E0" id="svg_49"/>
  <path d="m109.171,474.712c-1.82,-2.009 -3.116,-4.436 -3.773,-7.066c-0.71,-2.303 -1.003,-4.714 -0.864,-7.12l0.302,0c-0.137,0.548 -0.234,0.836 -0.288,0.823c-0.055,-0.014 0,-0.316 0,-0.865l0.301,0c0.149,2.347 0.554,4.67 1.208,6.929c0.851,2.509 1.892,4.949 3.114,7.299z" fill="#E0E0E0" id="svg_50"/>
  <path d="m97.5347,460.059c-0.8107,-0.616 -1.6957,-1.128 -2.6342,-1.523c-2.3687,-0.71 -4.8608,-0.911 -7.3128,-0.59c-2.4839,0.199 -4.9478,0.598 -7.3676,1.193c-0.9932,0.311 -2.0062,0.554 -3.0321,0.728c0.9055,-0.539 1.8856,-0.942 2.9086,-1.194c2.4202,-0.732 4.9143,-1.192 7.4363,-1.372c2.5438,-0.343 5.1328,-0.065 7.546,0.809c1.0199,0.345 1.8882,1.034 2.4558,1.949z" fill="#E0E0E0" id="svg_51"/>
  <path d="m94.7775,456.519c0,0.11 -1.5366,-0.617 -4.0337,-1.468c-6.5356,-2.237 -13.5338,-2.771 -20.333,-1.55c-2.6068,0.466 -4.116,0.946 -4.2121,0.837c0.3307,-0.207 0.6919,-0.359 1.0702,-0.453c0.9969,-0.349 2.014,-0.638 3.0458,-0.864c3.4182,-0.742 6.9254,-0.987 10.4135,-0.728c3.4879,0.267 6.9178,1.043 10.1803,2.305c0.9872,0.399 1.9493,0.857 2.8812,1.372c0.6585,0.289 1.0152,0.508 0.9878,0.549z" fill="#E0E0E0" id="svg_52"/>
  <path d="m118.089,441.523c-1.211,-3.337 -2.196,-6.752 -2.95,-10.221c-0.977,-3.411 -1.742,-6.88 -2.291,-10.386c1.211,3.337 2.196,6.752 2.95,10.221c0.977,3.412 1.742,6.881 2.291,10.386z" fill="#E0E0E0" id="svg_53"/>
  <path d="m118.267,441.523c-0.942,-2.114 -2.034,-4.159 -3.266,-6.119c-1.381,-1.85 -2.995,-3.515 -4.802,-4.953c0.689,0.169 1.329,0.498 1.866,0.961c1.365,0.992 2.549,2.213 3.499,3.608c1.457,1.892 2.39,4.135 2.703,6.503z" fill="#E0E0E0" id="svg_54"/>
  <path d="m118.129,576.24c0,0 -0.206,-1.125 -0.741,-3.115c-0.777,-2.813 -1.83,-5.543 -3.142,-8.149c-4.529,-8.507 -10.132,-16.396 -16.67,-23.475c-3.7181,-4.254 -7.3265,-8.232 -10.386,-12.101c-2.7517,-3.375 -5.2379,-6.957 -7.4363,-10.716c-1.474,-2.54 -2.7271,-5.202 -3.7455,-7.957c-0.3568,-0.974 -0.6037,-1.743 -0.7409,-2.278c-0.098,-0.26 -0.1626,-0.532 -0.1921,-0.809c0,0 0.3979,1.07 1.1799,2.991c1.1035,2.697 2.4107,5.307 3.9102,7.806c2.2459,3.701 4.7539,7.236 7.5049,10.578c3.0732,3.787 6.6953,7.78 10.4272,12.047c7.5186,8.437 13.4186,16.971 16.5876,23.708c1.273,2.633 2.266,5.392 2.963,8.232c0.179,0.779 0.316,1.566 0.412,2.36c0.061,0.288 0.084,0.583 0.069,0.878z" fill="#E0E0E0" id="svg_55"/>
  <path d="m155.243,534.325c-0.621,0.403 -1.268,0.765 -1.935,1.084c-1.759,0.991 -3.446,2.105 -5.049,3.334c-2.36,1.845 -4.575,3.868 -6.627,6.051c-2.332,2.455 -4.719,5.309 -7.175,8.369c-4.885,6.133 -9.453,11.566 -12.197,15.888c-1.372,2.154 -2.401,3.965 -3.06,5.241c-0.311,0.673 -0.668,1.324 -1.07,1.948c0,0 0,-0.192 0.178,-0.549c0.179,-0.357 0.343,-0.878 0.659,-1.523c0.847,-1.849 1.814,-3.641 2.895,-5.364c2.648,-4.446 7.189,-9.947 12.073,-16.067c2.442,-3.059 4.871,-5.927 7.244,-8.383c2.095,-2.182 4.366,-4.188 6.792,-5.995c1.64,-1.213 3.385,-2.278 5.213,-3.183c0.645,-0.316 1.167,-0.522 1.51,-0.673c0.343,-0.15 0.549,-0.205 0.549,-0.178z" fill="#E0E0E0" id="svg_56"/>
  <path d="m155.97,547.922c-1.356,0.299 -2.732,0.501 -4.116,0.604c-3.306,0.329 -6.572,0.972 -9.755,1.921c-3.148,1.024 -6.103,2.568 -8.74,4.569c-2.003,1.564 -2.95,2.853 -3.046,2.744c-0.096,-0.11 0.165,-0.371 0.604,-0.947c0.642,-0.798 1.359,-1.533 2.14,-2.195c2.608,-2.169 5.607,-3.818 8.836,-4.857c3.224,-0.958 6.548,-1.543 9.906,-1.743c1.384,-0.158 2.78,-0.191 4.171,-0.096z" fill="#E0E0E0" id="svg_57"/>
  <path d="m131.52,556.291c-0.206,-0.123 1.646,-2.949 3.073,-6.75c1.427,-3.8 1.674,-7.217 1.907,-7.175c0.138,0.729 0.138,1.479 0,2.209c-0.195,1.769 -0.595,3.509 -1.194,5.186c-0.621,1.673 -1.422,3.273 -2.387,4.774c-0.796,1.125 -1.317,1.811 -1.399,1.756z" fill="#E0E0E0" id="svg_58"/>
  <path d="m167.272,497.803c-0.202,0.148 -0.423,0.268 -0.658,0.356l-1.935,0.879c-0.85,0.356 -1.879,0.823 -3.032,1.372c-1.152,0.548 -2.524,1.221 -3.937,2.071l-2.237,1.276c-0.782,0.439 -1.55,0.974 -2.36,1.482c-1.66,1.002 -3.32,2.25 -5.09,3.499c-7.572,5.666 -14.175,12.524 -19.551,20.305c-1.207,1.811 -2.373,3.499 -3.32,5.186c-0.494,0.837 -1.002,1.633 -1.372,2.415c-0.37,0.782 -0.823,1.564 -1.194,2.291c-0.809,1.441 -1.372,2.813 -1.934,3.993c-0.563,1.18 -1.002,2.222 -1.372,3.087c-0.371,0.864 -0.59,1.372 -0.81,1.962c-0.076,0.234 -0.187,0.456 -0.329,0.658c0.041,-0.244 0.111,-0.484 0.206,-0.713c0.178,-0.535 0.412,-1.194 0.686,-2.003c0.358,-1.068 0.77,-2.117 1.235,-3.142c0.521,-1.194 1.07,-2.593 1.838,-4.116c0.371,-0.741 0.769,-1.509 1.166,-2.319c0.398,-0.809 0.906,-1.605 1.372,-2.456c0.933,-1.701 2.1,-3.43 3.293,-5.254c5.367,-7.862 12.029,-14.756 19.702,-20.388c1.797,-1.263 3.471,-2.484 5.159,-3.471c0.823,-0.508 1.605,-1.029 2.401,-1.469l2.277,-1.248c1.372,-0.823 2.744,-1.372 3.993,-1.989c1.248,-0.618 2.223,-1.002 3.087,-1.372l1.989,-0.755c0.236,-0.074 0.48,-0.12 0.727,-0.137z" fill="#E0E0E0" id="svg_59"/>
  <path d="m137.887,517.491c0.279,-0.948 0.845,-1.787 1.619,-2.401c1.809,-1.576 4.118,-2.461 6.517,-2.497c2.355,-0.004 4.688,0.463 6.86,1.372c0.919,0.286 1.789,0.712 2.58,1.262c-0.938,-0.184 -1.857,-0.455 -2.744,-0.809c-2.148,-0.73 -4.4,-1.105 -6.668,-1.112c-2.251,0.05 -4.427,0.814 -6.216,2.182c-0.695,0.622 -1.346,1.291 -1.948,2.003z" fill="#E0E0E0" id="svg_60"/>
  <path d="m133.496,522.019c0.882,-1.912 1.505,-3.933 1.852,-6.01c0.134,-2.103 -0.004,-4.215 -0.412,-6.283c0.385,0.52 0.648,1.12 0.769,1.756c0.389,1.504 0.496,3.067 0.315,4.61c-0.174,1.541 -0.64,3.036 -1.372,4.404c-0.576,1.029 -1.084,1.564 -1.152,1.523z" fill="#E0E0E0" id="svg_61"/>
  <path d="m85.668,582.977c1.0152,17.973 6.4209,36.234 14.749,54.701l36.207,0c7.944,-18.289 12.979,-36.522 13.871,-54.701l-64.827,0z" fill="#E0E0E0" id="svg_62"/>
  <path d="m144.635,612.049c0,0.192 -11.923,0.343 -26.631,0.343c-14.708,0 -26.6168,-0.151 -26.6168,-0.343c0,-0.192 11.9088,-0.343 26.6168,-0.343c14.708,0 26.631,0.206 26.631,0.343z" fill="#FAFAFA" id="svg_63"/>
  <path d="m143.826,618.553c0,0.192 -11.182,0.343 -24.957,0.343c-13.775,0 -24.9701,-0.151 -24.9701,-0.343c0,-0.192 11.1821,-0.343 24.9701,-0.343c13.789,0 24.957,0.165 24.957,0.343z" fill="#FAFAFA" id="svg_64"/>
  <path d="m101.007,594.775c0.439,5.553 0.439,11.131 0,16.684c-0.457,-5.552 -0.457,-11.132 0,-16.684z" fill="#FAFAFA" id="svg_65"/>
  <path d="m120.406,594.775c0.439,5.75 0.439,11.524 0,17.274c-0.457,-5.749 -0.457,-11.525 0,-17.274z" fill="#FAFAFA" id="svg_66"/>
  <path d="m138.57,594.625c0.457,5.863 0.457,11.753 0,17.616c-0.457,-5.863 -0.457,-11.753 0,-17.616z" fill="#FAFAFA" id="svg_67"/>
  <path d="m149.342,594.776c0,0.192 -13.981,0.343 -31.213,0.343c-17.233,0 -31.2408,-0.151 -31.2408,-0.343c0,-0.192 13.9808,-0.343 31.2408,-0.343c17.259,0 31.213,0.151 31.213,0.343z" fill="#FAFAFA" id="svg_68"/>
  <path d="m963.144,638.186c0,0.192 -204.537,0.357 -456.78,0.357c-252.242,0 -456.8757,-0.165 -456.8757,-0.357c0,-0.192 204.4967,-0.357 456.8757,-0.357c252.38,0 456.78,0.151 456.78,0.357z" fill="#263238" id="svg_69"/>
  <path d="m889.4,578.681c-14.928,-8.081 -31.721,-22.775 -38.252,-39.458c16.596,8.785 29.986,22.598 38.252,39.458z" fill="#263238" id="svg_70"/>
  <path d="m888.423,553.643c-14.927,-8.067 -31.72,-22.761 -38.251,-39.458c16.596,8.785 29.986,22.597 38.251,39.458z" fill="#263238" id="svg_71"/>
  <path d="m886.201,529.167c-14.982,-8.068 -31.735,-22.762 -38.306,-39.459c16.596,8.789 29.989,22.6 38.265,39.459" fill="#263238" id="svg_72"/>
  <path d="m882.935,503.523c-13.857,-10.098 -28.812,-27.028 -33.271,-44.494c15.414,11.045 27.035,26.586 33.271,44.494z" fill="#263238" id="svg_73"/>
  <path d="m878.723,483.63c-9.385,-14.996 -17.384,-36.756 -15.559,-54.784c10.452,16.338 15.863,35.391 15.559,54.784z" fill="#263238" id="svg_74"/>
  <path d="m880.824,493.069c3.952,-18.714 13.556,-41.805 27.44,-54.811c-4.067,20.4 -13.544,39.332 -27.44,54.811z" fill="#263238" id="svg_75"/>
  <path d="m883.926,514.239c5.639,-19.14 17.548,-42.354 33.024,-54.702c-5.885,20.874 -17.294,39.772 -33.024,54.702z" fill="#263238" id="svg_76"/>
  <path d="m887.312,540.019c5.653,-19.208 17.562,-42.354 33.038,-54.702c-5.894,20.873 -17.307,39.77 -33.038,54.702z" fill="#263238" id="svg_77"/>
  <path d="m889.055,571.438c5.652,-19.139 17.548,-42.354 33.024,-54.702c-5.885,20.874 -17.294,39.772 -33.024,54.702z" fill="#263238" id="svg_78"/>
  <path d="m878.34,479.856c0.046,0.096 0.079,0.198 0.096,0.302l0.206,0.906c0.192,0.837 0.439,2.003 0.768,3.471c0.659,3.018 1.523,7.409 2.497,12.842c0.974,5.433 2.031,11.936 3.06,19.208c1.029,7.271 1.948,15.215 2.744,23.612c0.795,8.397 1.276,16.464 1.619,23.722c0.343,7.258 0.466,13.885 0.493,19.4c0.028,5.515 0,10.002 -0.123,13.089c0,1.509 -0.082,2.744 -0.11,3.553l0,0.933c0.017,0.105 0.017,0.211 0,0.316c0,0 0,-0.11 0,-0.316c0,-0.206 0,-0.548 0,-0.933l0,-3.553c0,-3.087 0,-7.56 -0.082,-13.075c-0.082,-5.516 -0.274,-12.101 -0.617,-19.387c-0.343,-7.285 -0.906,-15.297 -1.674,-23.694c-0.769,-8.397 -1.715,-16.354 -2.676,-23.599c-0.96,-7.244 -1.989,-13.72 -2.922,-19.208c-0.933,-5.488 -1.715,-9.85 -2.305,-12.883c-0.274,-1.481 -0.494,-2.648 -0.645,-3.498c-0.068,-0.371 -0.123,-0.672 -0.151,-0.906c-0.078,-0.088 -0.139,-0.19 -0.178,-0.302z" fill="#263238" id="svg_79"/>
  <path d="m895.914,585.144c-6.942,-14.557 -12.005,-35.027 -8.589,-51.011c7.772,15.803 10.758,33.533 8.589,51.011z" fill="#455A64" id="svg_80"/>
  <path d="m907.521,566.292c-6.942,-14.557 -12.005,-35.027 -8.588,-51.011c7.773,15.803 10.759,33.534 8.588,51.011z" fill="#455A64" id="svg_81"/>
  <path d="m917.868,547.126c-6.956,-14.557 -12.005,-35.027 -8.589,-51.011c7.767,15.806 10.752,33.534 8.589,51.011z" fill="#455A64" id="svg_82"/>
  <path d="m928.116,526.45c-5.172,-15.407 -7.766,-36.413 -2.483,-51.793c5.827,16.66 6.69,34.653 2.483,51.793z" fill="#455A64" id="svg_83"/>
  <path d="m934.77,509.52c0.507,-16.396 5.323,-36.935 15.503,-49.036c-0.228,17.515 -5.621,34.573 -15.503,49.036z" fill="#455A64" id="svg_84"/>
  <path d="m931.683,517.655c12.059,-11.388 30.403,-22.679 46.881,-24.161c-12.894,12.513 -29.209,20.921 -46.881,24.161z" fill="#455A64" id="svg_85"/>
  <path d="m923.559,534.887c13.514,-10.701 33.586,-20.758 50.942,-20.799c-14.539,11.837 -32.273,19.078 -50.942,20.799z" fill="#455A64" id="svg_86"/>
  <path d="m913.395,555.66c13.514,-10.715 33.586,-20.772 50.956,-20.813c-14.545,11.839 -32.282,19.084 -50.956,20.813z" fill="#455A64" id="svg_87"/>
  <path d="m899.234,579.642c13.515,-10.715 33.601,-20.772 50.956,-20.799c-14.55,11.826 -32.285,19.066 -50.956,20.799z" fill="#455A64" id="svg_88"/>
  <path d="m936.347,506.542l-0.082,0.274l-0.275,0.769c-0.288,0.727 -0.658,1.701 -1.138,2.949c-0.988,2.566 -2.484,6.229 -4.418,10.743c-3.856,9.014 -9.604,21.307 -16.67,34.479c-3.567,6.585 -7.121,12.759 -10.468,18.316c-3.348,5.556 -6.49,10.482 -9.206,14.557c-2.717,4.075 -4.967,7.354 -6.572,9.604l-1.839,2.565l-0.494,0.645c-0.056,0.08 -0.12,0.154 -0.192,0.22c0.036,-0.088 0.082,-0.17 0.137,-0.247l0.439,-0.7c0.44,-0.631 1.016,-1.509 1.757,-2.62c1.55,-2.264 3.731,-5.557 6.393,-9.673c2.662,-4.116 5.763,-9.055 9.097,-14.612c3.333,-5.556 6.859,-11.744 10.413,-18.316c7.079,-13.158 12.856,-25.41 16.807,-34.369c1.976,-4.486 3.553,-8.122 4.596,-10.66l1.235,-2.895l0.343,-0.755c0.032,-0.097 0.078,-0.19 0.137,-0.274z" fill="#263238" id="svg_89"/>
  <path d="m929.076,586.9l-69.08,0l0,13.323l7.107,0l5.968,37.963l42.696,0l6.147,-37.963l7.162,0l0,-13.323z" fill="#7a0dfd" id="svg_90"/>
  <path d="m929.077,599.934c0,-0.179 -15.353,-0.316 -34.3,-0.316c-18.948,0 -34.3,0.137 -34.3,0.316c0,0.178 15.339,0.329 34.3,0.329c18.961,0 34.3,-0.151 34.3,-0.329z" fill="#263238" id="svg_91"/>
  <path d="m827.082,634.77l-625.632,0c-10.07,0 -19.728,-3.997 -26.854,-11.112c-7.125,-7.116 -11.136,-16.768 -11.15,-26.838l0,-407.813c0,-7.596 3.016,-14.88 8.386,-20.252c5.369,-5.372 12.652,-8.392 20.247,-8.396l645.746,0c7.23,0 14.164,2.873 19.277,7.985c5.112,5.113 7.985,12.047 7.985,19.277l0,409.199c-0.015,10.07 -4.025,19.722 -11.151,26.838c-7.126,7.115 -16.784,11.112 -26.854,11.112z" fill="#EBEBEB" id="svg_92"/>
  <path d="m827.083,634.77l1.495,-0.096c1.477,-0.047 2.949,-0.198 4.404,-0.453c5.738,-0.902 11.19,-3.118 15.929,-6.476c3.501,-2.453 6.551,-5.493 9.014,-8.986c2.994,-4.201 5.099,-8.967 6.188,-14.008c0.275,-1.372 0.453,-2.744 0.672,-4.199c0.22,-1.454 0.179,-2.922 0.179,-4.418l0,-9.343c0,-6.403 0,-13.263 0,-20.58c0,-58.077 0,-142.125 -0.124,-245.972c0,-25.958 0,-53.124 0,-81.497c0,-14.177 0,-28.629 0,-43.355l0,-5.488c0.036,-1.832 -0.037,-3.665 -0.219,-5.488c-0.444,-3.675 -1.65,-7.217 -3.54,-10.4c-1.909,-3.234 -4.469,-6.035 -7.518,-8.227c-3.05,-2.192 -6.521,-3.726 -10.194,-4.505c-3.691,-0.823 -7.546,-0.494 -11.402,-0.563l-183.477,0l-446.696,0l-7.423,0c-1.234,0 -2.469,0 -3.69,0c-1.221,0.049 -2.436,0.186 -3.636,0.412c-4.807,0.863 -9.308,2.961 -13.06,6.088c-3.752,3.127 -6.627,7.175 -8.343,11.748c-0.849,2.268 -1.415,4.632 -1.688,7.038c-0.178,2.401 -0.165,4.857 -0.151,7.313l0,58.283c0,38.589 0,76.585 0,113.985c0,74.72 0,146.804 0,215.404l0,12.829c0,1.07 0,2.14 0,3.196l0.165,3.156c0.207,2.095 0.588,4.169 1.139,6.201c2.12,8.148 6.961,15.327 13.72,20.347c3.312,2.508 7.023,4.442 10.976,5.721c3.926,1.228 8.015,1.857 12.128,1.866l119.117,0l169.867,0l336.14,0.261l-336.14,0.247l-169.867,0l-119.158,0c-4.188,-0.009 -8.35,-0.648 -12.348,-1.893c-4.003,-1.306 -7.759,-3.272 -11.113,-5.818c-3.388,-2.548 -6.34,-5.629 -8.74,-9.123c-2.383,-3.542 -4.159,-7.455 -5.255,-11.58c-0.56,-2.069 -0.95,-4.179 -1.166,-6.311l-0.151,-3.211c0,-1.07 0,-2.126 0,-3.197l0,-12.828c0,-68.668 0,-140.74 0,-215.404l0,-171.994c0,-2.456 0,-4.898 0.151,-7.381c0.272,-2.469 0.852,-4.893 1.729,-7.217c1.751,-4.696 4.697,-8.855 8.546,-12.065c3.85,-3.21 8.471,-5.36 13.406,-6.237c1.231,-0.238 2.479,-0.38 3.732,-0.426c1.248,-0.082 2.483,0 3.718,0l7.422,0l446.696,0l183.436,0c3.828,0.083 7.725,-0.26 11.525,0.59c5.631,1.187 10.749,4.103 14.641,8.342c3.892,4.238 6.361,9.587 7.064,15.298c0.182,1.855 0.256,3.72 0.22,5.584l0,5.488c0,14.735 0,29.187 0,43.355c0,28.355 0,55.52 0,81.497c0,103.847 -0.082,187.964 -0.11,245.972c0,7.263 0,14.123 0,20.58c0,3.211 0,6.325 0,9.344c0,1.495 -0.137,2.977 -0.192,4.431c-0.055,1.454 -0.398,2.854 -0.672,4.226c-1.114,5.066 -3.242,9.855 -6.257,14.077c-2.939,4.114 -6.673,7.598 -10.98,10.246c-4.308,2.649 -9.102,4.408 -14.1,5.175c-1.459,0.253 -2.936,0.39 -4.418,0.411l-1.591,0.028z" fill="#263238" id="svg_93"/>
  <path d="m851.71,638.186l-683.147,0c-10.214,0 -20.009,-4.058 -27.232,-11.28c-7.222,-7.222 -11.28,-17.018 -11.28,-27.232l760.171,0c0,10.214 -4.058,20.01 -11.28,27.232c-7.223,7.222 -17.018,11.28 -27.232,11.28z" fill="#EBEBEB" id="svg_94"/>
  <path d="m851.71,638.186l1.015,0l3.019,-0.178c3.922,-0.471 7.757,-1.501 11.387,-3.06c2.654,-1.188 5.167,-2.67 7.491,-4.417c2.825,-2.08 5.338,-4.551 7.464,-7.341c2.528,-3.224 4.495,-6.851 5.817,-10.729c0.165,-0.521 0.398,-1.029 0.536,-1.564l0.411,-1.619c0.151,-0.549 0.288,-1.097 0.425,-1.66c0.138,-0.562 0.179,-1.139 0.275,-1.701c0.217,-1.164 0.35,-2.343 0.398,-3.526c0,-0.59 0.068,-1.194 0.096,-1.798l0,-0.466l0,-0.343c0,-0.082 0.233,0.22 0,0.096l-0.919,0l-167.453,0.055l-553.012,0.096l-38.608,0l0.357,-0.357c0.045,6.428 1.67,12.747 4.733,18.399c0.776,1.387 1.637,2.725 2.579,4.006l1.441,1.907l1.605,1.77l0.796,0.878l0.878,0.81l1.756,1.591c0.631,0.494 1.276,0.96 1.907,1.372c0.617,0.503 1.268,0.961 1.948,1.372c5.355,3.43 11.491,5.45 17.836,5.872c3.115,0.234 6.312,0.096 9.467,0.137l223.897,0l236.121,0.193l158.452,0.109l42.944,0.069l11.154,0l3.787,0l-3.787,0l-11.154,0l-42.944,0.068l-158.452,0.11l-236.121,0.179l-223.952,0c-3.169,0 -6.311,0.096 -9.521,-0.138c-6.446,-0.438 -12.677,-2.5 -18.111,-5.995c-0.696,-0.407 -1.361,-0.866 -1.989,-1.372c-0.645,-0.48 -1.372,-0.947 -1.935,-1.455l-1.783,-1.632l-0.906,-0.81l-0.809,-0.905l-1.674,-1.77l-1.372,-1.935c-0.954,-1.322 -1.833,-2.696 -2.634,-4.116c-3.117,-5.758 -4.771,-12.194 -4.816,-18.741l0.357,-0.357l38.539,0l553.026,0.137l167.631,0.11l0.919,0c-0.082,-0.123 0.261,0.165 0.206,0.178l0,0.357l0,0.453c0,0.617 0,1.221 -0.096,1.825c-0.054,1.188 -0.191,2.371 -0.412,3.539c-0.096,0.577 -0.164,1.153 -0.274,1.715l-0.439,1.661c-0.137,0.548 -0.275,1.097 -0.426,1.632c-0.15,0.535 -0.356,1.057 -0.535,1.578c-1.339,3.897 -3.329,7.538 -5.885,10.77c-2.141,2.803 -4.673,5.284 -7.519,7.368c-2.342,1.743 -4.873,3.216 -7.546,4.39c-3.643,1.551 -7.494,2.563 -11.429,3.005c-2.785,0.137 -4.157,0.178 -4.157,0.178z" fill="#263238" id="svg_95"/>
  <path d="m445.105,599.674l9.426,15.339l132.741,0l8.753,-15.339l-150.92,0z" fill="white" id="svg_96"/>
  <path d="m210.355,195.3719l485.359,0l0,395.136l-481.065,0c-7.259,0 -14.221,-2.883 -19.354,-8.017c-5.133,-5.133 -8.017,-12.095 -8.017,-19.354l0,-344.688c0,-6.12 2.431,-11.99 6.759,-16.318c4.328,-4.327 10.197,-6.759 16.318,-6.759z" fill="#455A64" id="svg_97"/>
  <path d="m298.245,181.817l-102.475,0c-2.459,0 -4.819,0.978 -6.558,2.717c-1.739,1.739 -2.716,4.098 -2.716,6.558l0,373.294c0.003,3.335 1.33,6.533 3.689,8.892c2.358,2.359 5.556,3.685 8.892,3.689l95.23,0c1.046,-0.004 2.047,-0.421 2.786,-1.162c0.738,-0.741 1.152,-1.744 1.152,-2.789l0,-391.199z" fill="#263238" id="svg_98"/>
  <path d="m223.732,211.083c0.003,1.376 -0.403,2.723 -1.166,3.868c-0.762,1.146 -1.848,2.04 -3.119,2.568c-1.27,0.529 -2.67,0.669 -4.02,0.402c-1.35,-0.267 -2.591,-0.929 -3.565,-1.901c-0.974,-0.972 -1.638,-2.211 -1.908,-3.561c-0.269,-1.35 -0.132,-2.749 0.394,-4.021c0.526,-1.272 1.418,-2.359 2.562,-3.124c1.144,-0.765 2.489,-1.173 3.866,-1.173c0.913,-0.002 1.817,0.176 2.661,0.524c0.844,0.348 1.611,0.859 2.257,1.504c0.646,0.645 1.158,1.411 1.508,2.254c0.35,0.843 0.53,1.747 0.53,2.66z" fill="#455A64" id="svg_99"/>
  <path d="m235.489,218.025c3.834,0 6.943,-3.108 6.943,-6.942c0,-3.834 -3.109,-6.942 -6.943,-6.942c-3.834,0 -6.942,3.108 -6.942,6.942c0,3.834 3.108,6.942 6.942,6.942z" fill="#455A64" id="svg_100"/>
  <path d="m255.508,218.025c3.834,0 6.943,-3.108 6.943,-6.942c0,-3.834 -3.109,-6.942 -6.943,-6.942c-3.834,0 -6.942,3.108 -6.942,6.942c0,3.834 3.108,6.942 6.942,6.942z" fill="#455A64" id="svg_101"/>
  <path d="m472.721,216.255l-139.216,0c-1.82,0 -3.565,-0.722 -4.851,-2.009c-1.287,-1.286 -2.009,-3.031 -2.009,-4.851c-0.002,-0.898 0.174,-1.787 0.519,-2.617c0.345,-0.829 0.852,-1.581 1.49,-2.213c0.638,-0.632 1.396,-1.131 2.228,-1.468c0.833,-0.336 1.724,-0.504 2.623,-0.493l139.216,0c0.893,-0.002 1.777,0.173 2.601,0.513c0.825,0.341 1.575,0.841 2.206,1.472c0.631,0.631 1.131,1.381 1.471,2.205c0.341,0.825 0.516,1.709 0.514,2.601c0,1.808 -0.713,3.543 -1.985,4.827c-1.272,1.285 -2.999,2.015 -4.807,2.033z" fill="#ebebeb" id="svg_102"/>
  <path d="m267.938,305.736l-47.677,0c-1.299,0 -2.545,-0.516 -3.463,-1.434c-0.919,-0.919 -1.435,-2.165 -1.435,-3.464c0,-1.299 0.516,-2.544 1.435,-3.463c0.918,-0.919 2.164,-1.435 3.463,-1.435l47.677,0c1.299,0 2.545,0.516 3.464,1.435c0.918,0.919 1.434,2.164 1.434,3.463c0,1.299 -0.516,2.545 -1.434,3.464c-0.919,0.918 -2.165,1.434 -3.464,1.434z" fill="#455A64" id="svg_103"/>
  <path d="m396.015,255.193l-45.152,0c-0.644,0 -1.283,-0.128 -1.878,-0.375c-0.595,-0.247 -1.135,-0.609 -1.59,-1.065c-0.455,-0.456 -0.816,-0.998 -1.061,-1.594c-0.246,-0.595 -0.371,-1.234 -0.369,-1.878c0,-1.299 0.516,-2.545 1.434,-3.464c0.919,-0.918 2.165,-1.434 3.464,-1.434l45.152,0c1.299,0 2.545,0.516 3.464,1.434c0.918,0.919 1.434,2.165 1.434,3.464c0.002,0.644 -0.123,1.283 -0.368,1.878c-0.246,0.596 -0.606,1.138 -1.061,1.594c-0.455,0.456 -0.996,0.818 -1.591,1.065c-0.595,0.247 -1.233,0.375 -1.878,0.375z" fill="#263238" id="svg_104"/>
  <path d="m396.015,280.78l-45.152,0c-1.299,0 -2.545,-0.516 -3.464,-1.434c-0.918,-0.919 -1.434,-2.165 -1.434,-3.464c0,-1.299 0.516,-2.544 1.434,-3.463c0.919,-0.919 2.165,-1.435 3.464,-1.435l45.152,0c1.299,0 2.545,0.516 3.464,1.435c0.918,0.919 1.434,2.164 1.434,3.463c0,1.299 -0.516,2.545 -1.434,3.464c-0.919,0.918 -2.165,1.434 -3.464,1.434z" fill="#263238" id="svg_105"/>
  <g opacity="0.2" id="svg_106">
   <path opacity="0.2" d="m396.015,307.328l-45.152,0c-1.299,0 -2.545,-0.516 -3.464,-1.434c-0.918,-0.919 -1.434,-2.165 -1.434,-3.464c0,-1.299 0.516,-2.545 1.434,-3.463c0.919,-0.919 2.165,-1.435 3.464,-1.435l45.152,0c1.299,0 2.545,0.516 3.464,1.435c0.918,0.918 1.434,2.164 1.434,3.463c0,1.299 -0.516,2.545 -1.434,3.464c-0.919,0.918 -2.165,1.434 -3.464,1.434z" fill="black" id="svg_107"/>
  </g>
  <path d="m376.753,358.518l-25.89,0c-1.299,0 -2.545,-0.516 -3.464,-1.435c-0.918,-0.918 -1.434,-2.164 -1.434,-3.463c0,-1.299 0.516,-2.545 1.434,-3.464c0.919,-0.918 2.165,-1.434 3.464,-1.434l25.89,0c0.643,-0.002 1.281,0.123 1.876,0.369c0.595,0.245 1.136,0.606 1.591,1.061c0.455,0.455 0.816,0.996 1.061,1.591c0.246,0.595 0.371,1.233 0.37,1.877c0,1.299 -0.516,2.545 -1.435,3.463c-0.919,0.919 -2.164,1.435 -3.463,1.435z" fill="#263238" id="svg_108"/>
  <path d="m376.753,385.079l-25.89,0c-0.644,0 -1.283,-0.127 -1.878,-0.374c-0.595,-0.247 -1.135,-0.609 -1.59,-1.065c-0.455,-0.456 -0.816,-0.998 -1.061,-1.594c-0.246,-0.596 -0.371,-1.234 -0.369,-1.878c0,-1.299 0.516,-2.545 1.434,-3.464c0.919,-0.918 2.165,-1.434 3.464,-1.434l25.89,0c1.299,0 2.544,0.516 3.463,1.434c0.919,0.919 1.435,2.165 1.435,3.464c0.001,0.644 -0.124,1.282 -0.369,1.878c-0.246,0.596 -0.606,1.138 -1.061,1.594c-0.455,0.456 -0.996,0.818 -1.591,1.065c-0.595,0.247 -1.233,0.374 -1.877,0.374z" fill="#263238" id="svg_109"/>
  <g opacity="0.2" id="svg_110">
   <path opacity="0.2" d="m453.705,385.079l-47.471,0c-0.644,0 -1.282,-0.127 -1.878,-0.374c-0.595,-0.247 -1.135,-0.609 -1.59,-1.065c-0.455,-0.456 -0.816,-0.998 -1.061,-1.594c-0.245,-0.596 -0.371,-1.234 -0.369,-1.878c0,-1.299 0.516,-2.545 1.435,-3.464c0.918,-0.918 2.164,-1.434 3.463,-1.434l47.471,0c1.299,0 2.545,0.516 3.464,1.434c0.918,0.919 1.434,2.165 1.434,3.464c0.002,0.644 -0.123,1.282 -0.369,1.878c-0.245,0.596 -0.605,1.138 -1.06,1.594c-0.455,0.456 -0.996,0.818 -1.591,1.065c-0.595,0.247 -1.233,0.374 -1.878,0.374z" fill="black" id="svg_111"/>
  </g>
  <path d="m426.856,408.692l-47.485,0c-1.299,0 -2.545,-0.516 -3.464,-1.435c-0.918,-0.919 -1.434,-2.164 -1.434,-3.463c0,-1.299 0.516,-2.545 1.434,-3.464c0.919,-0.918 2.165,-1.434 3.464,-1.434l47.485,0c1.299,0 2.544,0.516 3.463,1.434c0.919,0.919 1.435,2.165 1.435,3.464c0,1.299 -0.516,2.544 -1.435,3.463c-0.919,0.919 -2.164,1.435 -3.463,1.435z" fill="#263238" id="svg_112"/>
  <path d="m435.818,425.828l-29.498,0c-2.705,0 -4.898,2.193 -4.898,4.898c0,2.705 2.193,4.898 4.898,4.898l29.498,0c2.705,0 4.898,-2.193 4.898,-4.898c0,-2.705 -2.193,-4.898 -4.898,-4.898z" fill="#ebebeb" id="svg_113"/>
  <path d="m435.818,488.432l-29.498,0c-0.644,0 -1.282,-0.127 -1.878,-0.374c-0.595,-0.247 -1.135,-0.609 -1.59,-1.066c-0.455,-0.456 -0.816,-0.997 -1.061,-1.593c-0.246,-0.596 -0.371,-1.235 -0.369,-1.879c0,-1.299 0.516,-2.545 1.435,-3.463c0.918,-0.919 2.164,-1.435 3.463,-1.435l29.498,0c1.299,0 2.545,0.516 3.463,1.435c0.919,0.918 1.435,2.164 1.435,3.463c0.002,0.644 -0.124,1.283 -0.369,1.879c-0.245,0.596 -0.606,1.137 -1.061,1.593c-0.455,0.457 -0.995,0.819 -1.59,1.066c-0.596,0.247 -1.234,0.374 -1.878,0.374z" fill="#ebebeb" id="svg_114"/>
  <path d="m435.818,544.191l-29.498,0c-1.299,0 -2.545,-0.516 -3.463,-1.435c-0.919,-0.919 -1.435,-2.164 -1.435,-3.463c0,-1.299 0.516,-2.545 1.435,-3.464c0.918,-0.918 2.164,-1.434 3.463,-1.434l29.498,0c1.299,0 2.545,0.516 3.463,1.434c0.919,0.919 1.435,2.165 1.435,3.464c0,1.299 -0.516,2.544 -1.435,3.463c-0.918,0.919 -2.164,1.435 -3.463,1.435z" fill="#ebebeb" id="svg_115"/>
  <g opacity="0.2" id="svg_116">
   <path opacity="0.2" d="m508.34,544.191l-51.724,0c-1.299,0 -2.545,-0.516 -3.464,-1.435c-0.918,-0.919 -1.434,-2.164 -1.434,-3.463c0,-1.299 0.516,-2.545 1.434,-3.464c0.919,-0.918 2.165,-1.434 3.464,-1.434l51.724,0c1.299,0 2.545,0.516 3.464,1.434c0.918,0.919 1.434,2.165 1.434,3.464c0,1.299 -0.516,2.544 -1.434,3.463c-0.919,0.919 -2.165,1.435 -3.464,1.435z" fill="black" id="svg_117"/>
  </g>
  <g opacity="0.2" id="svg_118">
   <path opacity="0.2" d="m544.532,544.191l-7.45,0c-1.299,0 -2.545,-0.516 -3.464,-1.435c-0.918,-0.919 -1.434,-2.164 -1.434,-3.463c0,-1.299 0.516,-2.545 1.434,-3.464c0.919,-0.918 2.165,-1.434 3.464,-1.434l7.45,0c1.299,0 2.544,0.516 3.463,1.434c0.919,0.919 1.435,2.165 1.435,3.464c0,1.299 -0.516,2.544 -1.435,3.463c-0.919,0.919 -2.164,1.435 -3.463,1.435z" fill="black" id="svg_119"/>
  </g>
  <g opacity="0.2" id="svg_120">
   <path opacity="0.2" d="m505.239,488.432l-43.712,0c-0.644,0 -1.282,-0.127 -1.878,-0.374c-0.595,-0.247 -1.135,-0.609 -1.59,-1.066c-0.455,-0.456 -0.816,-0.997 -1.061,-1.593c-0.246,-0.596 -0.371,-1.235 -0.369,-1.879c0,-1.299 0.516,-2.545 1.435,-3.463c0.918,-0.919 2.164,-1.435 3.463,-1.435l43.712,0c1.299,0 2.545,0.516 3.463,1.435c0.919,0.918 1.435,2.164 1.435,3.463c0.002,0.644 -0.124,1.283 -0.369,1.879c-0.245,0.596 -0.606,1.137 -1.061,1.593c-0.455,0.457 -0.995,0.819 -1.591,1.066c-0.595,0.247 -1.233,0.374 -1.877,0.374z" fill="black" id="svg_121"/>
  </g>
  <g opacity="0.2" id="svg_122">
   <path opacity="0.2" d="m601.087,512.908l-139.56,0c-1.299,0 -2.545,-0.516 -3.463,-1.434c-0.919,-0.919 -1.435,-2.165 -1.435,-3.464c0,-1.299 0.516,-2.545 1.435,-3.463c0.918,-0.919 2.164,-1.435 3.463,-1.435l139.56,0c1.299,0 2.545,0.516 3.463,1.435c0.919,0.918 1.435,2.164 1.435,3.463c0,1.299 -0.516,2.545 -1.435,3.464c-0.918,0.918 -2.164,1.434 -3.463,1.434z" fill="black" id="svg_123"/>
  </g>
  <g opacity="0.2" id="svg_124">
   <path opacity="0.2" d="m617.193,488.432l-89.084,0c-0.644,0 -1.282,-0.127 -1.878,-0.374c-0.595,-0.247 -1.135,-0.609 -1.59,-1.066c-0.455,-0.456 -0.816,-0.997 -1.061,-1.593c-0.246,-0.596 -0.371,-1.235 -0.369,-1.879c0,-1.299 0.516,-2.545 1.435,-3.463c0.918,-0.919 2.164,-1.435 3.463,-1.435l89.084,0c0.644,-0.002 1.283,0.124 1.879,0.369c0.595,0.245 1.137,0.606 1.593,1.061c0.457,0.455 0.819,0.995 1.066,1.591c0.247,0.595 0.374,1.233 0.374,1.877c0,1.303 -0.518,2.552 -1.439,3.473c-0.921,0.921 -2.17,1.439 -3.473,1.439z" fill="black" id="svg_125"/>
  </g>
  <g opacity="0.2" id="svg_126">
   <path opacity="0.2" d="m495.373,425.828l-36.92,0c-2.705,0 -4.898,2.193 -4.898,4.898c0,2.705 2.193,4.898 4.898,4.898l36.92,0c2.705,0 4.898,-2.193 4.898,-4.898c0,-2.705 -2.193,-4.898 -4.898,-4.898z" fill="black" id="svg_127"/>
  </g>
  <g opacity="0.2" id="svg_128">
   <path opacity="0.2" d="m527.315,425.828l-9.179,0c-2.705,0 -4.898,2.193 -4.898,4.898c0,2.705 2.193,4.898 4.898,4.898l9.179,0c2.705,0 4.898,-2.193 4.898,-4.898c0,-2.705 -2.193,-4.898 -4.898,-4.898z" fill="black" id="svg_129"/>
  </g>
  <g opacity="0.2" id="svg_130">
   <path opacity="0.2" d="m597.685,425.828l-46.154,0c-2.705,0 -4.898,2.193 -4.898,4.898c0,2.705 2.193,4.898 4.898,4.898l46.154,0c2.705,0 4.898,-2.193 4.898,-4.898c0,-2.705 -2.193,-4.898 -4.898,-4.898z" fill="black" id="svg_131"/>
  </g>
  <path d="m459.015,408.692l-10.578,0c-1.299,0 -2.545,-0.516 -3.463,-1.435c-0.919,-0.919 -1.435,-2.164 -1.435,-3.463c0,-1.299 0.516,-2.545 1.435,-3.464c0.918,-0.918 2.164,-1.434 3.463,-1.434l10.578,0c1.299,0 2.545,0.516 3.464,1.434c0.918,0.919 1.434,2.165 1.434,3.464c0,1.299 -0.516,2.544 -1.434,3.463c-0.919,0.919 -2.165,1.435 -3.464,1.435z" fill="#263238" id="svg_132"/>
  <g opacity="0.2" id="svg_133">
   <path opacity="0.2" d="m548.636,408.692l-67.351,0c-1.299,0 -2.545,-0.516 -3.464,-1.435c-0.918,-0.919 -1.434,-2.164 -1.434,-3.463c0,-1.299 0.516,-2.545 1.434,-3.464c0.919,-0.918 2.165,-1.434 3.464,-1.434l67.351,0c1.299,0 2.545,0.516 3.464,1.434c0.918,0.919 1.434,2.165 1.434,3.464c0,1.299 -0.516,2.544 -1.434,3.463c-0.919,0.919 -2.165,1.435 -3.464,1.435z" fill="black" id="svg_134"/>
  </g>
  <g opacity="0.2" id="svg_135">
   <path opacity="0.2" d="m468.36,255.193l-45.153,0c-0.644,0 -1.282,-0.128 -1.877,-0.375c-0.596,-0.247 -1.136,-0.609 -1.591,-1.065c-0.455,-0.456 -0.816,-0.998 -1.061,-1.594c-0.245,-0.595 -0.371,-1.234 -0.369,-1.878c0,-1.299 0.516,-2.545 1.435,-3.464c0.918,-0.918 2.164,-1.434 3.463,-1.434l45.153,0c1.299,0 2.545,0.516 3.463,1.434c0.919,0.919 1.435,2.165 1.435,3.464c0.001,0.644 -0.124,1.283 -0.369,1.878c-0.246,0.596 -0.606,1.138 -1.061,1.594c-0.455,0.456 -0.996,0.818 -1.591,1.065c-0.595,0.247 -1.233,0.375 -1.877,0.375z" fill="black" id="svg_136"/>
  </g>
  <g opacity="0.2" id="svg_137">
   <path opacity="0.2" d="m526.532,280.78l-103.325,0c-1.299,0 -2.545,-0.516 -3.463,-1.434c-0.919,-0.919 -1.435,-2.165 -1.435,-3.464c-0.002,-0.643 0.124,-1.281 0.369,-1.876c0.246,-0.595 0.606,-1.136 1.062,-1.591c0.455,-0.455 0.995,-0.816 1.591,-1.061c0.595,-0.246 1.232,-0.371 1.876,-0.37l103.325,0c1.299,0 2.545,0.516 3.464,1.435c0.918,0.919 1.434,2.164 1.434,3.463c0,1.299 -0.516,2.545 -1.434,3.464c-0.919,0.918 -2.165,1.434 -3.464,1.434z" fill="black" id="svg_138"/>
  </g>
  <g opacity="0.2" id="svg_139">
   <path opacity="0.2" d="m637.788,307.328l-214.581,0c-1.299,0 -2.545,-0.516 -3.463,-1.434c-0.919,-0.919 -1.435,-2.165 -1.435,-3.464c0,-1.299 0.516,-2.545 1.435,-3.463c0.918,-0.919 2.164,-1.435 3.463,-1.435l214.581,0c1.299,0 2.545,0.516 3.463,1.435c0.919,0.918 1.435,2.164 1.435,3.463c0,1.299 -0.516,2.545 -1.435,3.464c-0.918,0.918 -2.164,1.434 -3.463,1.434z" fill="black" id="svg_140"/>
  </g>
  <g opacity="0.2" id="svg_141">
   <path opacity="0.2" d="m524.378,325.946l-101.171,0c-1.299,0 -2.545,-0.516 -3.463,-1.434c-0.919,-0.919 -1.435,-2.165 -1.435,-3.464c0,-1.299 0.516,-2.544 1.435,-3.463c0.918,-0.919 2.164,-1.435 3.463,-1.435l101.171,0c1.299,0 2.545,0.516 3.464,1.435c0.918,0.919 1.434,2.164 1.434,3.463c0,1.299 -0.516,2.545 -1.434,3.464c-0.919,0.918 -2.165,1.434 -3.464,1.434z" fill="black" id="svg_142"/>
  </g>
  <g opacity="0.2" id="svg_143">
   <path opacity="0.2" d="m503.689,358.518l-101.185,0c-1.3,0 -2.545,-0.516 -3.464,-1.435c-0.918,-0.918 -1.435,-2.164 -1.435,-3.463c0,-1.299 0.517,-2.545 1.435,-3.464c0.919,-0.918 2.164,-1.434 3.464,-1.434l101.185,0c1.299,0 2.544,0.516 3.463,1.434c0.919,0.919 1.435,2.165 1.435,3.464c0,1.299 -0.516,2.545 -1.435,3.463c-0.919,0.919 -2.164,1.435 -3.463,1.435z" fill="black" id="svg_144"/>
  </g>
  <g opacity="0.2" id="svg_145">
   <path opacity="0.2" d="m560.326,358.518l-33.916,0c-1.299,0 -2.545,-0.516 -3.464,-1.435c-0.918,-0.918 -1.434,-2.164 -1.434,-3.463c0,-1.299 0.516,-2.545 1.434,-3.464c0.919,-0.918 2.165,-1.434 3.464,-1.434l33.916,0c1.299,0 2.544,0.516 3.463,1.434c0.919,0.919 1.435,2.165 1.435,3.464c0,1.299 -0.516,2.545 -1.435,3.463c-0.919,0.919 -2.164,1.435 -3.463,1.435z" fill="black" id="svg_146"/>
  </g>
  <path d="m647.035,358.353l-64.059,0c-1.299,0 -2.545,-0.516 -3.463,-1.435c-0.919,-0.918 -1.435,-2.164 -1.435,-3.463c0,-1.299 0.516,-2.545 1.435,-3.464c0.918,-0.918 2.164,-1.434 3.463,-1.434l64.059,0c1.299,0 2.545,0.516 3.463,1.434c0.919,0.919 1.435,2.165 1.435,3.464c0,1.299 -0.516,2.545 -1.435,3.463c-0.918,0.919 -2.164,1.435 -3.463,1.435z" fill="#263238" id="svg_147"/>
  <path d="m247.29,332.148l-27.029,0c-1.299,0 -2.545,-0.516 -3.463,-1.435c-0.919,-0.919 -1.435,-2.164 -1.435,-3.463c0,-1.299 0.516,-2.545 1.435,-3.464c0.918,-0.918 2.164,-1.434 3.463,-1.434l27.029,0c1.299,0 2.545,0.516 3.463,1.434c0.919,0.919 1.435,2.165 1.435,3.464c0,1.299 -0.516,2.544 -1.435,3.463c-0.918,0.919 -2.164,1.435 -3.463,1.435z" fill="#455A64" id="svg_148"/>
  <path d="m239.195,411.408l-18.934,0c-1.299,0 -2.545,-0.516 -3.463,-1.434c-0.919,-0.919 -1.435,-2.165 -1.435,-3.464c0,-1.299 0.516,-2.545 1.435,-3.463c0.918,-0.919 2.164,-1.435 3.463,-1.435l18.934,0c0.644,-0.001 1.283,0.124 1.879,0.369c0.595,0.246 1.137,0.606 1.593,1.061c0.457,0.455 0.819,0.996 1.066,1.591c0.247,0.595 0.374,1.233 0.374,1.877c0,0.645 -0.127,1.283 -0.374,1.878c-0.247,0.595 -0.609,1.136 -1.066,1.591c-0.456,0.455 -0.998,0.815 -1.593,1.061c-0.596,0.245 -1.235,0.37 -1.879,0.368z" fill="#455A64" id="svg_149"/>
  <path d="m272.836,358.572l-52.575,0c-1.299,0 -2.545,-0.516 -3.463,-1.434c-0.919,-0.919 -1.435,-2.165 -1.435,-3.464c0,-1.299 0.516,-2.544 1.435,-3.463c0.918,-0.919 2.164,-1.435 3.463,-1.435l52.575,0c1.299,0 2.545,0.516 3.464,1.435c0.918,0.919 1.434,2.164 1.434,3.463c0,1.299 -0.516,2.545 -1.434,3.464c-0.919,0.918 -2.165,1.434 -3.464,1.434z" fill="#455A64" id="svg_150"/>
  <path d="m263.615,384.997l-43.355,0c-0.645,-0.005 -1.282,-0.137 -1.875,-0.389c-0.593,-0.252 -1.131,-0.619 -1.582,-1.079c-0.451,-0.46 -0.807,-1.005 -1.047,-1.603c-0.241,-0.598 -0.361,-1.237 -0.353,-1.881c-0.002,-0.645 0.123,-1.283 0.369,-1.879c0.245,-0.596 0.605,-1.137 1.06,-1.594c0.455,-0.456 0.996,-0.818 1.591,-1.065c0.595,-0.247 1.233,-0.374 1.878,-0.374l43.355,0c0.644,0 1.282,0.127 1.877,0.374c0.596,0.247 1.136,0.609 1.591,1.065c0.455,0.457 0.816,0.998 1.061,1.594c0.245,0.596 0.371,1.234 0.369,1.879c0.007,0.651 -0.115,1.297 -0.361,1.9c-0.245,0.604 -0.609,1.152 -1.069,1.613c-0.46,0.461 -1.007,0.826 -1.609,1.073c-0.603,0.248 -1.249,0.372 -1.9,0.366z" fill="#455A64" id="svg_151"/>
  <path d="m323.75,255.206c2.751,0 4.981,-2.23 4.981,-4.981c0,-2.75 -2.23,-4.98 -4.981,-4.98c-2.75,0 -4.98,2.23 -4.98,4.98c0,2.751 2.23,4.981 4.98,4.981z" fill="#263238" id="svg_152"/>
  <path d="m328.731,275.772c0,0.985 -0.292,1.948 -0.84,2.767c-0.547,0.819 -1.325,1.458 -2.235,1.835c-0.91,0.377 -1.911,0.475 -2.877,0.283c-0.966,-0.192 -1.854,-0.666 -2.55,-1.363c-0.697,-0.697 -1.171,-1.584 -1.363,-2.55c-0.192,-0.966 -0.094,-1.968 0.283,-2.878c0.377,-0.91 1.015,-1.687 1.834,-2.235c0.819,-0.547 1.782,-0.839 2.767,-0.839c1.321,0 2.588,0.525 3.522,1.459c0.934,0.934 1.459,2.2 1.459,3.521z" fill="#263238" id="svg_153"/>
  <path d="m323.75,307.355c2.751,0 4.981,-2.23 4.981,-4.98c0,-2.751 -2.23,-4.98 -4.981,-4.98c-2.75,0 -4.98,2.229 -4.98,4.98c0,2.75 2.23,4.98 4.98,4.98z" fill="#263238" id="svg_154"/>
  <path d="m328.731,328.951c0.003,0.986 -0.287,1.95 -0.832,2.771c-0.546,0.821 -1.323,1.461 -2.233,1.84c-0.909,0.379 -1.911,0.48 -2.878,0.289c-0.967,-0.191 -1.856,-0.664 -2.554,-1.36c-0.698,-0.696 -1.174,-1.583 -1.367,-2.55c-0.193,-0.966 -0.095,-1.968 0.281,-2.879c0.377,-0.911 1.015,-1.689 1.834,-2.237c0.82,-0.548 1.783,-0.841 2.769,-0.841c0.653,-0.001 1.301,0.126 1.905,0.375c0.604,0.248 1.153,0.614 1.616,1.075c0.462,0.462 0.829,1.01 1.08,1.613c0.25,0.604 0.379,1.251 0.379,1.904z" fill="#263238" id="svg_155"/>
  <path d="m323.75,360.52c2.751,0 4.981,-2.229 4.981,-4.98c0,-2.751 -2.23,-4.98 -4.981,-4.98c-2.75,0 -4.98,2.229 -4.98,4.98c0,2.751 2.23,4.98 4.98,4.98z" fill="#263238" id="svg_156"/>
  <path d="m328.731,382.116c0,0.985 -0.292,1.948 -0.84,2.767c-0.547,0.819 -1.325,1.457 -2.235,1.834c-0.91,0.377 -1.911,0.476 -2.877,0.284c-0.966,-0.192 -1.854,-0.667 -2.55,-1.363c-0.697,-0.697 -1.171,-1.584 -1.363,-2.55c-0.192,-0.966 -0.094,-1.968 0.283,-2.878c0.377,-0.91 1.015,-1.688 1.834,-2.235c0.819,-0.547 1.782,-0.839 2.767,-0.839c0.655,-0.002 1.303,0.126 1.908,0.375c0.606,0.25 1.155,0.617 1.618,1.079c0.463,0.463 0.83,1.013 1.079,1.618c0.25,0.605 0.378,1.254 0.376,1.908z" fill="#263238" id="svg_157"/>
  <path d="m323.75,413.672c2.751,0 4.981,-2.23 4.981,-4.981c0,-2.75 -2.23,-4.98 -4.981,-4.98c-2.75,0 -4.98,2.23 -4.98,4.98c0,2.751 2.23,4.981 4.98,4.981z" fill="#263238" id="svg_158"/>
  <path d="m328.731,435.267c0,0.985 -0.292,1.948 -0.84,2.767c-0.547,0.819 -1.325,1.458 -2.235,1.835c-0.91,0.377 -1.911,0.475 -2.877,0.283c-0.966,-0.192 -1.854,-0.666 -2.55,-1.363c-0.697,-0.696 -1.171,-1.584 -1.363,-2.55c-0.192,-0.966 -0.094,-1.967 0.283,-2.877c0.377,-0.91 1.015,-1.688 1.834,-2.236c0.819,-0.547 1.782,-0.839 2.767,-0.839c1.321,0 2.588,0.525 3.522,1.459c0.934,0.934 1.459,2.201 1.459,3.521z" fill="#263238" id="svg_159"/>
  <path d="m323.75,466.823c2.751,0 4.981,-2.23 4.981,-4.98c0,-2.751 -2.23,-4.981 -4.981,-4.981c-2.75,0 -4.98,2.23 -4.98,4.981c0,2.75 2.23,4.98 4.98,4.98z" fill="#263238" id="svg_160"/>
  <path d="m328.731,488.433c0,0.985 -0.292,1.947 -0.84,2.766c-0.547,0.82 -1.325,1.458 -2.235,1.835c-0.91,0.377 -1.911,0.475 -2.877,0.283c-0.966,-0.192 -1.854,-0.666 -2.55,-1.363c-0.697,-0.696 -1.171,-1.584 -1.363,-2.55c-0.192,-0.966 -0.094,-1.967 0.283,-2.877c0.377,-0.91 1.015,-1.688 1.834,-2.236c0.819,-0.547 1.782,-0.839 2.767,-0.839c0.655,-0.002 1.303,0.126 1.908,0.376c0.606,0.249 1.155,0.616 1.618,1.079c0.463,0.463 0.83,1.012 1.079,1.618c0.25,0.605 0.378,1.253 0.376,1.908z" fill="#263238" id="svg_161"/>
  <path d="m323.75,519.988c2.751,0 4.981,-2.23 4.981,-4.98c0,-2.751 -2.23,-4.981 -4.981,-4.981c-2.75,0 -4.98,2.23 -4.98,4.981c0,2.75 2.23,4.98 4.98,4.98z" fill="#263238" id="svg_162"/>
  <path d="m328.731,541.584c0,0.985 -0.292,1.948 -0.84,2.767c-0.547,0.819 -1.325,1.457 -2.235,1.834c-0.91,0.377 -1.911,0.476 -2.877,0.284c-0.966,-0.193 -1.854,-0.667 -2.55,-1.363c-0.697,-0.697 -1.171,-1.584 -1.363,-2.55c-0.192,-0.967 -0.094,-1.968 0.283,-2.878c0.377,-0.91 1.015,-1.688 1.834,-2.235c0.819,-0.547 1.782,-0.839 2.767,-0.839c1.321,0 2.588,0.524 3.522,1.458c0.934,0.934 1.459,2.201 1.459,3.522z" fill="#263238" id="svg_163"/>
  <g opacity="0.2" id="svg_164">
   <path opacity="0.2" d="m618.36,181.228l-12.375,0l0,395.739l12.375,0l0,-395.739z" fill="black" id="svg_165"/>
  </g>
  <path d="m618.333,181.228l216.09,0c1.384,0 2.754,0.272 4.032,0.802c1.279,0.529 2.44,1.305 3.419,2.284c0.978,0.978 1.754,2.14 2.284,3.418c0.53,1.279 0.802,2.649 0.802,4.033l0,376.668c0,2.264 -0.899,4.434 -2.499,6.035c-1.601,1.6 -3.771,2.499 -6.035,2.499l-218.148,0l0,-395.739l0.055,0z" fill="white" id="svg_166"/>
  <path d="m830.72,247.674l-212.427,0l0,153.376l212.427,0l0,-153.376z" fill="#7a0dfd" id="svg_167"/>
  <path d="m803.142,448.151c0,0.205 -17.836,0.356 -39.898,0.356c-22.062,0 -39.911,-0.151 -39.911,-0.356c0,-0.206 17.835,-0.357 39.911,-0.357c22.075,0 39.898,0.165 39.898,0.357z" fill="#263238" id="svg_168"/>
  <path d="m820.842,468.415c0,0.192 -25.794,0.357 -57.624,0.357c-31.831,0 -57.624,-0.165 -57.624,-0.357c0,-0.192 25.78,-0.356 57.624,-0.356c31.844,0 57.624,0.151 57.624,0.356z" fill="#263238" id="svg_169"/>
  <path d="m820.842,484.317c0,0.192 -25.794,0.356 -57.624,0.356c-31.831,0 -57.624,-0.164 -57.624,-0.356c0,-0.192 25.78,-0.357 57.624,-0.357c31.844,0 57.624,0.096 57.624,0.357z" fill="#263238" id="svg_170"/>
  <path d="m820.842,500.08c0,0.206 -25.794,0.357 -57.624,0.357c-31.831,0 -57.624,-0.151 -57.624,-0.357c0,-0.205 25.78,-0.356 57.624,-0.356c31.844,0 57.624,0.164 57.624,0.356z" fill="#263238" id="svg_171"/>
  <path d="m789.327,549.541l-52.136,0c-1.733,0 -3.45,-0.342 -5.051,-1.005c-1.601,-0.663 -3.056,-1.635 -4.282,-2.861c-1.226,-1.226 -2.198,-2.681 -2.861,-4.282c-0.663,-1.601 -1.005,-3.318 -1.005,-5.051c0,-3.5 1.391,-6.857 3.866,-9.333c2.475,-2.475 5.832,-3.865 9.333,-3.865l52.136,0c3.5,0 6.857,1.39 9.333,3.865c2.475,2.476 3.865,5.833 3.865,9.333c0.002,1.734 -0.338,3.451 -1.001,5.053c-0.662,1.602 -1.634,3.058 -2.86,4.284c-1.226,1.226 -2.682,2.198 -4.284,2.861c-1.602,0.662 -3.319,1.003 -5.053,1.001z" fill="#7a0dfd" id="svg_172"/>
  <path d="m665.186,448.151c-0.606,0.111 -1.222,0.157 -1.838,0.137l-5.022,0.123c-4.239,0 -10.098,0.096 -16.56,0.096c-6.462,0 -12.348,0 -16.573,-0.096l-5.022,-0.123c-0.616,0.02 -1.232,-0.026 -1.838,-0.137c0.607,-0.103 1.222,-0.149 1.838,-0.138l5.022,-0.109c4.239,0 10.097,-0.11 16.573,-0.11c6.476,0 12.348,0 16.56,0.11l5.022,0.109c0.616,-0.011 1.231,0.035 1.838,0.138z" fill="#263238" id="svg_173"/>
  <path d="m682.884,468.415c-0.218,0.028 -0.44,0.028 -0.658,0l-1.88,0.069l-6.86,0.109c-5.845,0.069 -13.912,0.11 -22.816,0.11c-8.905,0 -16.986,0 -22.83,-0.11l-6.86,-0.109l-1.88,-0.069c-0.219,0.028 -0.44,0.028 -0.659,0c0.214,-0.061 0.436,-0.089 0.659,-0.082l1.88,0l6.86,-0.124c5.844,0 13.912,-0.096 22.83,-0.096c8.918,0 16.971,0 22.816,0.096l6.86,0.124l1.88,0c0.222,-0.007 0.444,0.021 0.658,0.082z" fill="#263238" id="svg_174"/>
  <path d="m682.885,484.317c-0.214,0.059 -0.436,0.083 -0.658,0.068l-1.88,0.069l-6.86,0.11c-5.845,0.068 -13.912,0.109 -22.816,0.109c-8.905,0 -16.986,0 -22.83,-0.109l-6.86,-0.11l-1.88,-0.069c-0.017,0.08 -0.063,0.15 -0.129,0.198c-0.065,0.048 -0.147,0.07 -0.227,0.061c-0.081,-0.008 -0.156,-0.047 -0.211,-0.107c-0.054,-0.061 -0.084,-0.139 -0.084,-0.22c0,-0.082 0.03,-0.16 0.084,-0.221c0.055,-0.06 0.13,-0.098 0.211,-0.107c0.08,-0.008 0.162,0.013 0.227,0.061c0.066,0.048 0.112,0.118 0.129,0.198l1.88,0l6.86,-0.11c5.844,0 13.912,-0.11 22.83,-0.11c8.918,0 16.971,0 22.816,0.11l6.86,0.11l1.88,0c0.222,-0.014 0.444,0.009 0.658,0.069z" fill="#263238" id="svg_175"/>
  <path d="m682.884,500.08c-0.214,0.06 -0.436,0.083 -0.658,0.069l-1.88,0l-6.86,0.123c-5.845,0 -13.912,0.096 -22.816,0.096c-8.905,0 -16.986,0 -22.83,-0.096l-6.86,-0.123l-1.88,0c-0.222,0.014 -0.444,-0.009 -0.659,-0.069c0.216,-0.051 0.437,-0.074 0.659,-0.068l1.88,-0.069l6.86,-0.11c5.844,-0.068 13.912,-0.109 22.83,-0.109c8.918,0 16.971,0 22.816,0.109l6.86,0.11l1.88,0.069c0.221,-0.006 0.443,0.017 0.658,0.068z" fill="#263238" id="svg_176"/>
  <path d="m651.782,523.144l-33.449,0l0,26.397l33.449,0c3.5,0 6.858,-1.391 9.333,-3.866c2.475,-2.475 3.866,-5.832 3.866,-9.333c0,-3.5 -1.391,-6.857 -3.866,-9.333c-2.475,-2.475 -5.833,-3.865 -9.333,-3.865z" fill="#7a0dfd" id="svg_177"/>
  <path d="m830.703,181.228l3.746,0c2.787,0 5.46,1.107 7.431,3.078c1.971,1.971 3.078,4.644 3.078,7.431l0,376.271c0,2.372 -0.942,4.648 -2.62,6.325c-1.677,1.678 -3.953,2.62 -6.325,2.62l-5.31,0l0,-395.725z" fill="#F5F5F5" id="svg_178"/>
  <path d="m837.838,246.631c-0.937,0.001 -1.864,-0.181 -2.73,-0.538c-0.865,-0.358 -1.652,-0.882 -2.314,-1.543c-0.663,-0.662 -1.189,-1.447 -1.547,-2.312c-0.359,-0.865 -0.544,-1.792 -0.544,-2.728l0,-37.469c0,-0.937 0.185,-1.864 0.544,-2.729c0.358,-0.864 0.884,-1.65 1.547,-2.311c0.662,-0.662 1.449,-1.186 2.314,-1.543c0.866,-0.357 1.793,-0.54 2.73,-0.538c1.888,0 3.699,0.75 5.035,2.086c1.335,1.335 2.085,3.146 2.085,5.035l0,37.469c0,1.888 -0.75,3.7 -2.085,5.035c-1.336,1.335 -3.147,2.086 -5.035,2.086z" fill="#E0E0E0" id="svg_179"/>
  <path d="m792.178,228.356l-70.164,0c-4.442,-0.126 -8.658,-1.979 -11.755,-5.164c-3.097,-3.186 -4.829,-7.454 -4.829,-11.897c0,-4.443 1.732,-8.71 4.829,-11.896c3.097,-3.186 7.313,-5.039 11.755,-5.165l70.164,0c4.441,0.126 8.658,1.979 11.754,5.165c3.097,3.186 4.83,7.453 4.83,11.896c0,4.443 -1.733,8.711 -4.83,11.897c-3.096,3.185 -7.313,5.038 -11.754,5.164zm-70.164,-32.75c-4.081,0.121 -7.954,1.827 -10.798,4.756c-2.844,2.929 -4.434,6.851 -4.434,10.933c0,4.083 1.59,8.004 4.434,10.933c2.844,2.929 6.717,4.635 10.798,4.756l70.164,0c4.08,-0.121 7.953,-1.827 10.797,-4.756c2.844,-2.929 4.434,-6.85 4.434,-10.933c0,-4.082 -1.59,-8.004 -4.434,-10.933c-2.844,-2.929 -6.717,-4.635 -10.797,-4.756l-70.164,0z" fill="#E0E0E0" id="svg_180"/>
  <path d="m672.281,210.561c0,0.206 -12.211,0.357 -27.262,0.357c-15.051,0 -27.262,-0.151 -27.262,-0.357c0,-0.206 12.211,-0.357 27.262,-0.357c15.051,0 27.262,0.165 27.262,0.357z" fill="#E0E0E0" id="svg_181"/>
  <path d="m790.176,210.561c0,0.206 -14.324,0.357 -31.995,0.357c-17.671,0 -32.009,-0.151 -32.009,-0.357c0,-0.206 14.324,-0.357 32.009,-0.357c17.685,0 31.995,0.165 31.995,0.357z" fill="#E0E0E0" id="svg_182"/>
  <path d="m730.727,312.35c8.358,0 15.133,-6.991 15.133,-15.614c0,-8.623 -6.775,-15.613 -15.133,-15.613c-8.358,0 -15.133,6.99 -15.133,15.613c0,8.623 6.775,15.614 15.133,15.614z" fill="white" id="svg_183"/>
  <path d="m830.706,366.956l-0.604,-0.439l-1.728,-1.372l-6.627,-5.187l-24.312,-19.208l-16.766,-13.239l-2.277,-1.812c-0.746,-0.581 -1.606,-0.998 -2.525,-1.221c-0.943,-0.227 -1.924,-0.242 -2.874,-0.042c-0.949,0.199 -1.842,0.607 -2.614,1.195c-3.018,2.675 -6.133,5.584 -9.316,8.479l-20.003,18.316c-1.757,1.578 -3.458,3.183 -5.283,4.788c-0.983,0.812 -2.166,1.345 -3.425,1.545c-1.26,0.201 -2.55,0.06 -3.736,-0.406c-1.183,-0.473 -2.229,-1.232 -3.046,-2.209l-2.497,-2.744l-5.036,-5.488l-19.688,-21.376l-9.384,-10.194l-4.542,-4.939c-0.74,-0.823 -1.495,-1.632 -2.236,-2.428c-0.689,-0.821 -1.437,-1.591 -2.236,-2.305c-1.196,-0.951 -2.688,-1.451 -4.215,-1.413c-1.528,0.038 -2.993,0.61 -4.141,1.619c-0.713,0.644 -1.372,1.481 -2.099,2.222l-8.04,8.781l-14.447,15.764l-20.964,22.803l-5.721,6.16l-1.51,1.606c-0.164,0.182 -0.338,0.356 -0.521,0.521c0,0 0.151,-0.206 0.466,-0.576c0.316,-0.371 0.837,-0.933 1.455,-1.647l5.625,-6.256l20.799,-22.954l14.379,-15.819c2.589,-2.835 5.259,-5.771 8.013,-8.808c0.713,-0.755 1.372,-1.523 2.14,-2.278c0.825,-0.728 1.806,-1.259 2.867,-1.55c1.088,-0.289 2.229,-0.316 3.328,-0.077c1.1,0.238 2.127,0.735 2.997,1.449c0.824,0.735 1.599,1.523 2.319,2.36l2.236,2.428l4.555,4.926l9.385,10.18l19.743,21.417l5.035,5.488c0.837,0.906 1.66,1.811 2.497,2.744c0.727,0.902 1.672,1.606 2.744,2.044c1.083,0.424 2.261,0.547 3.408,0.356c1.147,-0.19 2.222,-0.688 3.109,-1.44c1.77,-1.564 3.526,-3.196 5.255,-4.774l20.045,-18.275c3.21,-2.909 6.256,-5.763 9.371,-8.507c0.845,-0.637 1.822,-1.078 2.859,-1.291c1.036,-0.214 2.108,-0.194 3.136,0.057c1.003,0.255 1.938,0.723 2.744,1.372l2.278,1.811l16.697,13.349l24.161,19.373l6.544,5.296l1.702,1.372c0.343,0.274 0.521,0.453 0.521,0.453z" fill="white" id="svg_184"/>
  <path d="m834.573,577.613l-637.692,0c-2.936,-0.004 -5.75,-1.172 -7.825,-3.247c-2.076,-2.076 -3.244,-4.89 -3.247,-7.826l0,-374.926c0.003,-2.935 1.171,-5.749 3.247,-7.825c2.075,-2.076 4.889,-3.243 7.825,-3.247l637.692,0c2.935,0.004 5.749,1.171 7.825,3.247c2.075,2.076 3.243,4.89 3.247,7.825l0,375.023c-0.029,2.918 -1.208,5.708 -3.281,7.763c-2.073,2.055 -4.873,3.209 -7.791,3.213zm-637.692,-395.699c-2.572,0.004 -5.037,1.027 -6.855,2.845c-1.819,1.818 -2.842,4.284 -2.845,6.855l0,375.023c0.028,2.554 1.063,4.995 2.878,6.793c1.816,1.797 4.267,2.807 6.822,2.811l637.692,0c2.571,-0.004 5.036,-1.027 6.854,-2.846c1.819,-1.818 2.842,-4.283 2.846,-6.855l0,-374.926c-0.004,-2.571 -1.027,-5.037 -2.846,-6.855c-1.818,-1.818 -4.283,-2.841 -6.854,-2.845l-637.692,0z" fill="#263238" id="svg_185"/>
  <path d="m890.222,599.935c0,0.206 -169.099,0.357 -377.656,0.357c-208.558,0 -377.698,-0.151 -377.698,-0.357c0,-0.206 169.071,-0.371 377.698,-0.371c208.626,0 377.656,0.179 377.656,0.371z" fill="#263238" id="svg_186"/>
  <g opacity="0.2" id="svg_187">
   <path opacity="0.2" d="m490.766,576.899c18.984,-15.634 32.174,-37.186 37.456,-61.205c3.691,-16.958 3.307,-34.739 8.424,-51.313c4.253,-13.72 12.087,-26.068 17.973,-39.157c12.883,-28.812 16.149,-61.081 14.132,-92.527c-2.017,-31.447 -9.11,-62.33 -16.176,-93.049c-1.372,-5.818 -2.744,-11.896 -6.778,-16.341c-8.108,-9.055 -24.257,-6.86 -32.022,2.429c-7.766,9.288 -8.164,23.173 -3.938,34.56c2.977,8.013 8.054,16.313 5.488,24.49c-1.77,5.735 -6.928,9.783 -9.439,15.23c-5.982,13.034 4.816,27.261 7.148,41.407c3.924,23.749 -16.08,44.096 -23.818,66.871c-7.436,21.952 -3.279,45.852 -4.377,68.984c-1.646,35.151 -15.009,67.228 -28.674,99.69l34.601,-0.069z" fill="black" id="svg_188"/>
  </g>
  <g opacity="0.2" id="svg_189">
   <path opacity="0.2" d="m598.893,521.114c-0.727,-3.814 -3.265,-6.984 -5.666,-10.043c-17.113,-21.738 -31.426,-45.542 -42.601,-70.85l-8.232,21.444c-0.768,22.515 17.699,41.366 20.937,63.647c2.538,17.521 -4.966,35.37 -11.936,51.656l21.568,0c4.206,-3.184 7.791,-7.114 10.578,-11.593c6.359,-10.913 11.201,-22.642 14.392,-34.863c0.998,-3.026 1.326,-6.233 0.96,-9.398z" fill="black" id="svg_190"/>
  </g>
  <path d="m559.584,609.429l25.19,2.936c-2.428,6.297 -3.951,11.278 -3.951,11.278c-7.842,2.686 -16.385,2.486 -24.093,-0.563l2.854,-13.651z" fill="#FFBE9D" id="svg_191"/>
  <path d="m459.253,604.243c-1.729,7.217 -4.651,15.915 -4.651,15.915l24.696,2.47c0.59,-3.636 4.239,-11.909 5.789,-16.464l-25.834,-1.921z" fill="#FFBE9D" id="svg_192"/>
  <path d="m551.683,211.453c-3.046,-1.934 -3.787,-6.421 -2.141,-9.604c0.917,-1.561 2.181,-2.891 3.694,-3.885c1.514,-0.995 3.235,-1.628 5.032,-1.85c2.589,-0.39 5.233,-0.163 7.717,0.662c2.484,0.825 4.738,2.225 6.58,4.085c1.975,2.017 3.567,4.665 6.228,5.584c2.347,0.823 4.926,0.083 7.396,0.398c1.64,0.296 3.193,0.957 4.544,1.933c1.351,0.975 2.466,2.242 3.262,3.706c1.564,2.945 2.498,6.183 2.744,9.508c0.357,3.032 0.59,6.352 2.744,8.561c2.154,2.209 5.282,2.621 7.834,4.116c2.35,1.537 4.003,3.934 4.606,6.676c0.603,2.742 0.107,5.611 -1.381,7.991c-1.002,1.468 -2.456,2.813 -2.58,4.596c-0.123,1.784 0.947,3.073 1.441,4.638c0.255,1.002 0.293,2.048 0.111,3.066c-0.183,1.018 -0.581,1.985 -1.169,2.837c-0.587,0.851 -1.35,1.567 -2.238,2.099c-0.887,0.532 -1.878,0.867 -2.906,0.984c-2.113,0.124 -4.376,-0.7 -6.27,0.247c-1.893,0.947 -2.579,3.211 -3.786,4.926c-1.233,1.672 -3.004,2.868 -5.016,3.388c-2.011,0.52 -4.14,0.331 -6.029,-0.535c-1.55,-0.754 -3.018,-2.016 -4.747,-1.907c-1.729,0.11 -3.087,1.592 -4.788,1.921c-2.223,0.439 -4.336,-1.207 -5.653,-3.046c-1.317,-1.838 -2.236,-3.992 -3.938,-5.488c-2.209,-1.975 -5.323,-2.456 -8.122,-3.416c-3.104,-1.07 -5.941,-2.794 -8.321,-5.056c-2.38,-2.261 -4.247,-5.007 -5.475,-8.051c-1.228,-3.045 -1.788,-6.318 -1.642,-9.598c0.145,-3.279 0.993,-6.49 2.486,-9.414" fill="#263238" id="svg_193"/>
  <path d="m583.911,251.269c0.681,-0.731 1.528,-1.286 2.47,-1.619l-0.192,0c0.175,-0.045 0.354,-0.077 0.535,-0.096c0.32,-0.091 0.655,-0.116 0.986,-0.074c0.33,0.042 0.648,0.152 0.935,0.321c1.073,0.385 1.964,1.159 2.497,2.168c0.407,0.901 0.564,1.896 0.453,2.879c-0.111,0.982 -0.486,1.917 -1.085,2.705c-0.428,0.72 -1.067,1.292 -1.83,1.64c-0.763,0.348 -1.614,0.454 -2.439,0.305c-0.825,-0.149 -1.585,-0.547 -2.178,-1.14c-0.593,-0.593 -0.99,-1.352 -1.14,-2.177c-0.271,-0.835 -0.323,-1.725 -0.15,-2.586c0.173,-0.86 0.565,-1.661 1.138,-2.326z" fill="#455A64" id="svg_194"/>
  <path d="m543.713,283.662l-3.238,-59.408c-0.063,-1.264 0.353,-2.505 1.164,-3.476c0.811,-0.971 1.958,-1.601 3.213,-1.765l26.561,-7.519c8.534,-1.152 14.53,9.234 15.326,17.836c0.864,9.604 1.564,21.211 0.631,28.373c-1.866,14.393 -13.72,16.574 -13.72,16.574c0,0 -0.096,14.653 0,19.867l3.265,16.148l-33.202,-26.63z" fill="#FFBE9D" id="svg_195"/>
  <path d="m581.195,241.088c0.019,0.477 -0.15,0.943 -0.471,1.297c-0.32,0.354 -0.767,0.568 -1.244,0.596c-0.232,0.025 -0.467,0.003 -0.692,-0.063c-0.224,-0.067 -0.433,-0.178 -0.614,-0.326c-0.181,-0.148 -0.331,-0.33 -0.441,-0.537c-0.11,-0.206 -0.179,-0.432 -0.201,-0.665c-0.015,-0.478 0.155,-0.943 0.474,-1.298c0.32,-0.356 0.764,-0.574 1.241,-0.609c0.234,-0.027 0.471,-0.006 0.697,0.061c0.226,0.067 0.436,0.179 0.618,0.328c0.181,0.15 0.331,0.335 0.44,0.544c0.109,0.209 0.175,0.437 0.193,0.672z" fill="#263238" id="svg_196"/>
  <path d="m584.364,235.463c-0.219,0.247 -1.632,-0.741 -3.622,-0.686c-1.989,0.055 -3.388,1.098 -3.608,0.851c-0.219,-0.247 0.11,-0.535 0.727,-1.015c0.837,-0.617 1.843,-0.962 2.881,-0.988c1.032,-0.034 2.046,0.264 2.895,0.85c0.618,0.453 0.837,0.878 0.727,0.988z" fill="#263238" id="svg_197"/>
  <path d="m561.837,241.089c0.015,0.476 -0.155,0.94 -0.475,1.293c-0.32,0.353 -0.765,0.568 -1.24,0.6c-0.233,0.025 -0.468,0.003 -0.692,-0.064c-0.225,-0.067 -0.433,-0.177 -0.614,-0.325c-0.182,-0.148 -0.332,-0.331 -0.442,-0.537c-0.11,-0.207 -0.178,-0.433 -0.201,-0.666c-0.015,-0.477 0.155,-0.943 0.474,-1.298c0.32,-0.355 0.765,-0.573 1.241,-0.609c0.234,-0.024 0.47,-0.002 0.695,0.066c0.225,0.067 0.435,0.179 0.616,0.329c0.181,0.149 0.331,0.333 0.441,0.541c0.109,0.208 0.176,0.435 0.197,0.67z" fill="#263238" id="svg_198"/>
  <path d="m564.937,236.382c-0.219,0.247 -1.646,-0.74 -3.622,-0.686c-1.976,0.055 -3.402,1.098 -3.622,0.865c-0.219,-0.233 0.11,-0.549 0.727,-1.029c0.841,-0.617 1.853,-0.957 2.895,-0.974c1.03,-0.036 2.044,0.257 2.895,0.837c0.618,0.452 0.837,0.878 0.727,0.987z" fill="#263238" id="svg_199"/>
  <path d="m572.537,250.843c1.034,-0.354 2.108,-0.58 3.197,-0.672c0.494,0 0.974,-0.179 1.042,-0.522c0.033,-0.52 -0.096,-1.038 -0.37,-1.482c-0.508,-1.221 -1.043,-2.483 -1.605,-3.814c-2.237,-5.405 -3.856,-9.878 -3.636,-9.96c1.721,3.083 3.202,6.294 4.432,9.604c0.535,1.372 1.042,2.62 1.536,3.827c0.33,0.603 0.442,1.301 0.316,1.976c-0.066,0.182 -0.174,0.346 -0.314,0.48c-0.141,0.133 -0.31,0.232 -0.496,0.288c-0.275,0.088 -0.562,0.134 -0.85,0.138c-1.073,0.191 -2.167,0.237 -3.252,0.137z" fill="#263238" id="svg_200"/>
  <path d="m573.703,274.263c-6.472,0.229 -12.878,-1.374 -18.48,-4.623c0,0 4.116,10.66 18.453,8.918l0.027,-4.295z" fill="#EB996E" id="svg_201"/>
  <path d="m572.374,255.563c-0.468,-0.648 -1.088,-1.171 -1.806,-1.523c-0.718,-0.352 -1.511,-0.522 -2.31,-0.494c-0.516,0.022 -1.018,0.169 -1.462,0.43c-0.445,0.261 -0.819,0.627 -1.09,1.065c-0.275,0.494 -0.407,1.054 -0.383,1.618c0.024,0.564 0.204,1.111 0.52,1.579c0.371,0.482 0.878,0.84 1.456,1.029c0.577,0.188 1.199,0.198 1.782,0.028c1.091,-0.39 2.074,-1.035 2.867,-1.88c0.249,-0.21 0.454,-0.466 0.604,-0.755c0.07,-0.162 0.097,-0.339 0.078,-0.515c-0.019,-0.176 -0.084,-0.343 -0.188,-0.486" fill="#EB996E" id="svg_202"/>
  <path d="m566.749,252.448c0.329,0 0.384,2.127 2.264,3.595c1.879,1.468 4.116,1.166 4.116,1.468c0,0.302 -0.494,0.425 -1.455,0.48c-1.259,0.058 -2.498,-0.331 -3.498,-1.097c-0.952,-0.743 -1.581,-1.824 -1.757,-3.019c-0.041,-0.96 0.22,-1.427 0.33,-1.427z" fill="#263238" id="svg_203"/>
  <path d="m565.583,228.219c-0.178,0.535 -2.168,0.343 -4.473,0.686c-2.305,0.343 -4.116,1.029 -4.5,0.562c-0.137,-0.233 0.165,-0.741 0.906,-1.29c0.988,-0.674 2.12,-1.107 3.306,-1.262c1.184,-0.182 2.394,-0.074 3.526,0.316c0.92,0.315 1.304,0.727 1.235,0.988z" fill="#263238" id="svg_204"/>
  <path d="m583.472,228.672c-0.329,0.466 -1.701,0 -3.347,0c-1.647,0 -3.019,0.398 -3.348,-0.069c-0.151,-0.219 0,-0.686 0.658,-1.125c0.807,-0.551 1.767,-0.835 2.744,-0.809c0.979,-0.025 1.941,0.263 2.744,0.823c0.494,0.507 0.7,0.96 0.549,1.18z" fill="#263238" id="svg_205"/>
  <path d="m596.397,226.298c-0.598,-2.19 -1.936,-4.105 -3.787,-5.419c-1.093,-0.566 -2.155,-1.189 -3.183,-1.866c-2.071,-1.674 -2.552,-4.583 -3.827,-6.86c-0.842,-1.5 -2.027,-2.779 -3.458,-3.733c-1.43,-0.954 -3.067,-1.555 -4.774,-1.755c-2.841,-0.289 -5.763,0.562 -8.534,-0.124c-2.045,-0.521 -3.828,-1.852 -5.9,-2.25c-4.034,-0.768 -7.793,2.14 -10.715,5.022c0,2.894 2.291,4.815 4.5,6.681c1.119,0.922 2.424,1.591 3.827,1.96c1.402,0.37 2.867,0.431 4.295,0.181c2.195,-0.412 4.624,-1.523 6.531,-0.343c1.907,1.179 2.085,4.253 3.869,5.803c2.552,2.209 6.599,0.137 9.823,1.098c2.497,0.741 4.116,3.128 5.708,5.131c1.591,2.003 4.116,3.91 6.64,3.169c-0.079,-2.263 -0.42,-4.51 -1.015,-6.695z" fill="#263238" id="svg_206"/>
  <path d="m566.075,214.033c-1.811,-0.522 -5.488,-1.702 -6.476,-3.266c-0.981,-1.674 -2.384,-3.062 -4.069,-4.025c-1.685,-0.963 -3.594,-1.467 -5.535,-1.463c-1.967,0.153 -3.832,0.939 -5.316,2.239c-1.484,1.301 -2.507,3.048 -2.916,4.978c-2.361,0.086 -4.656,0.807 -6.643,2.087c-1.987,1.279 -3.593,3.07 -4.648,5.185c-0.274,0.541 -0.513,1.101 -0.714,1.673c-0.712,1.268 -1.141,2.675 -1.257,4.125c-0.116,1.45 0.083,2.907 0.585,4.272c0.631,1.633 1.701,3.444 0.851,4.98c-0.851,1.537 -3.019,1.619 -4.693,2.196c-1.454,0.549 -2.67,1.592 -3.434,2.946c-0.765,1.354 -1.03,2.933 -0.75,4.462c0.397,1.042 0.579,2.152 0.535,3.266c-0.416,1.083 -1.089,2.048 -1.962,2.812c-0.941,1.105 -1.573,2.438 -1.832,3.865c-0.26,1.428 -0.138,2.898 0.354,4.263c0.492,1.365 1.335,2.575 2.445,3.509c1.11,0.934 2.447,1.558 3.876,1.809c1.29,0.054 2.559,0.342 3.746,0.851c1.276,0.782 1.838,2.318 2.744,3.526c1.028,1.423 2.57,2.389 4.299,2.694c1.729,0.305 3.509,-0.076 4.962,-1.062c0.524,0.689 1.214,1.234 2.006,1.584c0.792,0.35 1.659,0.495 2.521,0.42l-0.521,-30.184c0.172,0.358 0.428,0.669 0.745,0.908c0.318,0.238 0.688,0.397 1.08,0.464c4.857,1.097 5.556,-8.905 4.472,-11.608c1.832,-1.495 3.468,-3.214 4.871,-5.117c1.557,-3.03 2.326,-6.404 2.236,-9.81c1.784,0.165 9.234,-2.305 8.438,-2.579z" fill="#263238" id="svg_207"/>
  <path d="m545.607,244.216c-0.15,-3.06 -3.91,-3.718 -6.571,-2.182c-1.468,0.837 -2.58,2.539 -2.456,5.804c0.356,8.698 9.014,6.544 9.027,6.297c0.014,-0.246 0.179,-6.311 0,-9.919z" fill="#FFBE9D" id="svg_208"/>
  <path d="m542.807,250.939c0,0 -0.137,0.124 -0.398,0.247c-0.361,0.145 -0.764,0.145 -1.125,0c-0.576,-0.334 -1.054,-0.815 -1.384,-1.393c-0.33,-0.578 -0.501,-1.234 -0.496,-1.9c-0.054,-0.744 0.063,-1.49 0.343,-2.181c0.068,-0.275 0.203,-0.528 0.392,-0.739c0.189,-0.21 0.426,-0.371 0.692,-0.469c0.173,-0.053 0.358,-0.046 0.526,0.021c0.167,0.068 0.306,0.191 0.393,0.35c0.124,0.247 0.069,0.412 0.124,0.425c0.055,0.014 0.178,-0.151 0.096,-0.507c-0.059,-0.216 -0.189,-0.405 -0.371,-0.535c-0.249,-0.169 -0.554,-0.233 -0.85,-0.179c-0.349,0.083 -0.671,0.252 -0.937,0.492c-0.266,0.24 -0.467,0.542 -0.586,0.88c-0.336,0.768 -0.482,1.606 -0.426,2.442c-0.011,0.777 0.208,1.54 0.631,2.192c0.422,0.653 1.029,1.165 1.743,1.472c0.236,0.058 0.482,0.063 0.719,0.013c0.238,-0.05 0.461,-0.153 0.653,-0.302c0.261,-0.109 0.302,-0.301 0.261,-0.329z" fill="#EB996E" id="svg_209"/>
  <path d="m554.097,211.728c-0.671,0.359 -1.259,0.854 -1.729,1.454c-0.987,1.848 -1.219,4.008 -0.644,6.023l0,0.219l-0.22,0c-1.25,0.334 -2.405,0.952 -3.377,1.807c-0.971,0.854 -1.731,1.922 -2.221,3.119c-0.273,0.677 -0.427,1.397 -0.452,2.127c0.02,0.775 0.111,1.546 0.274,2.304c0.169,0.815 0.279,1.64 0.329,2.47c0.061,0.908 -0.18,1.81 -0.686,2.566c-1.134,1.437 -2.624,2.553 -4.322,3.238c-1.479,0.657 -2.842,1.552 -4.033,2.648c-1.97,1.927 -3.132,4.532 -3.252,7.285c-0.064,1.86 0.332,3.707 1.153,5.378c0.576,1.18 1.056,1.756 1.015,1.784c-0.041,0.027 -0.151,-0.124 -0.384,-0.384c-1.495,-1.943 -2.275,-4.342 -2.209,-6.792c0.058,-2.884 1.234,-5.634 3.279,-7.669c1.209,-1.138 2.601,-2.065 4.116,-2.744c1.607,-0.645 3.023,-1.689 4.116,-3.032c0.96,-1.372 0.535,-3.046 0.274,-4.61c-0.162,-0.795 -0.25,-1.604 -0.26,-2.415c0.033,-0.797 0.205,-1.581 0.507,-2.319c0.533,-1.271 1.355,-2.4 2.4,-3.298c1.046,-0.898 2.286,-1.54 3.623,-1.874l-0.164,0.274c-0.282,-1.048 -0.349,-2.142 -0.198,-3.217c0.151,-1.075 0.517,-2.109 1.076,-3.039c0.361,-0.475 0.832,-0.856 1.372,-1.111l0.617,-0.192z" fill="#455A64" id="svg_210"/>
  <path d="m539.567,254.205c0.68,-0.735 1.527,-1.295 2.47,-1.633l-0.192,0c0.176,-0.04 0.355,-0.068 0.535,-0.082c0.319,-0.093 0.654,-0.121 0.984,-0.08c0.33,0.04 0.649,0.146 0.936,0.313c1.078,0.387 1.97,1.166 2.498,2.182c0.415,0.897 0.576,1.891 0.465,2.873c-0.112,0.983 -0.491,1.916 -1.097,2.697c-0.428,0.721 -1.067,1.293 -1.83,1.641c-0.763,0.347 -1.614,0.454 -2.439,0.304c-0.825,-0.149 -1.585,-0.546 -2.178,-1.139c-0.593,-0.593 -0.99,-1.353 -1.14,-2.178c-0.269,-0.833 -0.319,-1.72 -0.146,-2.578c0.173,-0.858 0.563,-1.657 1.134,-2.32z" fill="#455A64" id="svg_211"/>
  <path d="m633.028,299.975c-0.288,0.439 -8.04,9.357 -8.04,9.357l-4.966,8.232l0,-10.524c0,0 -1.468,-2.195 -2.347,1.167c-0.878,3.361 -3.649,16.093 -3.649,16.093l-2.936,9.796l10.976,8.232c0,0 4.39,-4.98 6.585,-6.86c2.196,-1.879 7.45,-4.678 9.207,-4.829c1.756,-0.151 9.357,-3.362 9.357,-4.391c0,-1.029 -1.455,-1.454 -3.513,-0.576c-2.058,0.878 -9.357,2.923 -10.084,1.605c-0.727,-1.317 11.991,-7.751 12.718,-8.918c0.728,-1.166 0.44,-2.744 -3.059,-1.468c-3.499,1.276 -10.098,5.269 -11.703,4.322c-1.605,-0.947 1.372,-2.854 1.605,-3.293c0.233,-0.439 8.479,-7.312 8.232,-8.78c-0.247,-1.468 -0.439,-2.923 -2.346,-1.606c-1.907,1.317 -9.604,10.085 -11.25,9.206c-1.647,-0.878 1.454,-4.116 1.372,-4.815c-0.083,-0.7 5.625,-8.342 5.625,-9.947c0,-1.606 -1.784,-2.003 -1.784,-2.003z" fill="#FFBE9D" id="svg_212"/>
  <path d="m622.067,342.246l-16.711,15.654l-7.121,-15.654l12.856,-8.191l10.976,8.191z" fill="#FFBE9D" id="svg_213"/>
  <path d="m542.971,275.772c0.892,0.453 17.767,13.954 17.767,13.954l15.696,10.194c0,0 9.179,47.142 7.848,54.88c-1.331,7.738 -9.769,34.3 -10.661,34.121l-54.66,-6.009l6.215,-23.242l-9.302,-44.315c0,0 -1.784,-12.938 4.116,-19.071c6.133,-6.38 19.839,-14.557 19.839,-14.557l3.142,-5.955z" fill="#7a0dfd" id="svg_214"/>
  <path d="m573.992,298.397l0.083,7.107l-5.42,83.184l11.21,0c0,0 15.256,-35.878 14.817,-47.197c-0.315,-8.232 -6.682,-23.502 -9.755,-32.997c-1.283,-3.679 -2.781,-7.28 -4.486,-10.783c-2.374,-2.127 -2.84,-2.539 -2.84,-3.019l1.001,-4.569l-4.939,-4.555l0,8.562l0.329,4.267z" fill="#7a0dfd" id="svg_215"/>
  <path d="m539.996,282.481c0.422,0.381 0.804,0.804 1.139,1.263l2.909,3.594c2.442,3.074 5.803,7.368 9.603,12.211l-0.562,0l1.207,-1.55c1.825,-2.291 3.568,-4.473 5.159,-6.49l0.165,-0.206l0.233,0.11c4.116,1.921 7.601,3.581 10.07,4.788c1.125,0.563 2.086,1.029 2.854,1.372c0.359,0.146 0.696,0.34 1.002,0.577c-0.376,-0.083 -0.74,-0.212 -1.084,-0.384l-2.95,-1.249c-2.511,-1.098 -6.05,-2.675 -10.166,-4.555l0.397,-0.096l-5.117,6.531l-1.208,1.536l-0.288,0.357l-0.274,-0.357c-3.732,-4.857 -7.011,-9.206 -9.357,-12.348c-1.098,-1.495 -2.017,-2.744 -2.744,-3.745c-0.37,-0.422 -0.701,-0.877 -0.988,-1.359z" fill="#ccc9c9" id="svg_216"/>
  <path d="m582.675,621.063l0,1.647c0,0 28.071,10.88 28.428,16.176l-55.47,0.384l0.631,-18.454c4.126,1.936 8.621,2.959 13.178,3.002c4.558,0.043 9.071,-0.897 13.233,-2.755z" fill="#7a0dfd" id="svg_217"/>
  <path d="m561.946,626.675c-0.531,0.169 -0.982,0.525 -1.267,1.003c-0.286,0.478 -0.387,1.043 -0.284,1.59c0.149,0.539 0.497,1 0.974,1.29c0.476,0.291 1.046,0.389 1.592,0.275c0.56,-0.178 1.035,-0.556 1.334,-1.063c0.299,-0.506 0.4,-1.105 0.285,-1.681c-0.199,-0.556 -0.608,-1.011 -1.139,-1.267c-0.532,-0.257 -1.142,-0.295 -1.701,-0.105" fill="white" id="svg_218"/>
  <path d="m555.66,639.27l0.151,-4.431l53.11,1.248c0,0 2.47,1.057 2.209,2.744l-55.47,0.439z" fill="#263238" id="svg_219"/>
  <path d="m582.897,622.889c0,0.274 -1.372,0.411 -2.744,1.289c-1.372,0.878 -2.03,2.017 -2.277,1.921c-0.247,-0.096 0.151,-1.674 1.77,-2.744c1.619,-1.07 3.306,-0.741 3.251,-0.466z" fill="#263238" id="svg_220"/>
  <path d="m588.728,625.234c0,0.261 -1.098,0.727 -2.017,1.88c-0.919,1.152 -1.166,2.36 -1.441,2.36c-0.274,0 -0.453,-1.551 0.714,-2.95c1.166,-1.4 2.744,-1.551 2.744,-1.29z" fill="#263238" id="svg_221"/>
  <path d="m592.09,632.177c-0.247,0 -0.631,-1.29 0,-2.744c0.631,-1.454 1.948,-2.086 2.058,-1.866c0.11,0.219 -0.659,1.029 -1.207,2.264c-0.549,1.235 -0.59,2.318 -0.851,2.346z" fill="#263238" id="svg_222"/>
  <path d="m479.983,619.046l-0.11,1.647c0,0 27.069,13.144 27.001,18.453l-55.319,-4.116l2.154,-18.357c3.952,2.257 8.345,3.638 12.878,4.048c4.534,0.409 9.102,-0.162 13.396,-1.675z" fill="#7a0dfd" id="svg_223"/>
  <path d="m458.854,622.889c-0.542,0.124 -1.02,0.443 -1.344,0.895c-0.323,0.452 -0.47,1.008 -0.412,1.561c0.101,0.55 0.409,1.04 0.861,1.369c0.452,0.33 1.013,0.473 1.567,0.401c0.578,-0.129 1.087,-0.469 1.428,-0.954c0.34,-0.485 0.486,-1.079 0.411,-1.667c-0.164,-0.566 -0.542,-1.046 -1.056,-1.336c-0.513,-0.29 -1.119,-0.367 -1.688,-0.214" fill="white" id="svg_224"/>
  <path d="m451.555,634.975l0.521,-4.417l52.822,5.625c0,0 2.387,1.248 1.976,2.963l-55.319,-4.171z" fill="#263238" id="svg_225"/>
  <path d="m480.051,620.858c0,0.274 -1.372,0.288 -2.744,1.056c-1.372,0.769 -2.182,1.853 -2.429,1.729c-0.247,-0.123 0.288,-1.66 1.99,-2.552c1.701,-0.892 3.334,-0.48 3.183,-0.233z" fill="#263238" id="svg_226"/>
  <path d="m485.689,623.698c0,0.26 -1.166,0.631 -2.167,1.715c-1.002,1.084 -1.372,2.25 -1.633,2.222c-0.261,-0.027 -0.329,-1.578 0.947,-2.881c1.275,-1.303 2.853,-1.317 2.853,-1.056z" fill="#263238" id="svg_227"/>
  <path d="m488.436,630.887c-0.261,0 -0.535,-1.372 0.274,-2.744c0.81,-1.372 2.113,-1.921 2.209,-1.688c0.096,0.234 -0.741,0.961 -1.372,2.141c-0.631,1.18 -0.837,2.291 -1.111,2.291z" fill="#263238" id="svg_228"/>
  <path d="m576.886,403.89c0,0 43.767,101.692 41.695,115.371c-2.071,13.679 -29.841,93.557 -29.841,93.557l-33.079,-3.842l17.274,-91.087l-32.119,-65.856l5.488,-66.789l33.518,3.458l-2.936,15.188z" fill="#263238" id="svg_229"/>
  <path d="m518.73,379.88l-2.854,7.45c-5.364,7.107 -14.186,20.58 -16.889,28.743c-3.842,11.58 -1.701,48.089 -1.701,48.089l-3.801,53.727c0,0 -10.482,20.91 -16.093,32.654c-4.857,10.153 -20.333,55.552 -20.333,55.552l32.489,2.401c0,0 41.242,-67.379 45.084,-76.969c3.841,-9.59 12.169,-86.71 12.169,-86.71l13.926,-58.105l-41.997,-6.832z" fill="#263238" id="svg_230"/>
  <path d="m560.751,390.65c0.021,0.118 0.021,0.239 0,0.357c0,0.288 -0.069,0.631 -0.124,1.056c-0.123,0.988 -0.288,2.346 -0.521,4.116c-0.48,3.581 -1.18,8.671 -2.044,14.928c-0.439,3.155 -0.933,6.599 -1.455,10.29c-0.137,0.933 -0.274,1.879 -0.425,2.84c-0.192,0.975 -0.444,1.937 -0.755,2.881c-0.683,1.954 -1.639,3.802 -2.84,5.488c-1.29,1.72 -2.415,3.557 -3.361,5.488c-0.884,2.03 -1.462,4.18 -1.715,6.38c-0.549,4.541 -1.111,9.233 -1.688,14.049c-2.346,19.208 -4.459,36.673 -5.995,49.392l-1.907,14.817c-0.233,1.729 -0.412,3.074 -0.549,4.116c-0.069,0.426 -0.124,0.783 -0.165,1.057c-0.011,0.122 -0.039,0.242 -0.082,0.357c0,0 0,-0.124 0,-0.371c0,-0.247 0,-0.631 0.096,-1.056c0.092,-0.988 0.229,-2.36 0.412,-4.116c0.398,-3.595 0.974,-8.699 1.673,-14.969c1.482,-12.677 3.527,-30.101 5.777,-49.392c0.576,-4.815 1.152,-9.521 1.701,-14.063c0.264,-2.268 0.87,-4.484 1.797,-6.572c0.975,-1.929 2.123,-3.766 3.43,-5.488c1.167,-1.637 2.091,-3.435 2.744,-5.337c0.31,-0.899 0.566,-1.815 0.769,-2.744c0.137,-0.946 0.288,-1.879 0.439,-2.744c0.548,-3.704 1.056,-7.148 1.536,-10.29c0.947,-6.242 1.729,-11.319 2.264,-14.886c0.288,-1.715 0.494,-3.073 0.659,-4.047c0.082,-0.426 0.137,-0.769 0.192,-1.057c0.055,-0.288 0.123,-0.494 0.137,-0.48z" fill="#455A64" id="svg_231"/>
  <path d="m576.749,386.287c0.078,-0.303 0.188,-0.598 0.329,-0.878c0.275,-0.631 0.645,-1.44 1.084,-2.456c0.439,-1.015 1.043,-2.359 1.674,-3.896l1.001,-2.442l1.016,-2.744c3.794,-10.162 5.429,-21.002 4.802,-31.831c-0.484,-5.933 -1.503,-11.811 -3.046,-17.561c-1.3,-4.701 -2.843,-9.331 -4.624,-13.871c-0.768,-1.921 -1.482,-3.663 -2.099,-5.2c-0.617,-1.537 -1.262,-2.744 -1.742,-3.869l-1.084,-2.456c-0.141,-0.28 -0.252,-0.574 -0.33,-0.878c0.174,0.256 0.326,0.527 0.453,0.81l1.208,2.401l1.852,3.827l2.222,5.173c1.856,4.528 3.463,9.154 4.816,13.857c1.585,5.786 2.628,11.706 3.115,17.685c0.647,10.917 -1.071,21.845 -5.036,32.036c-0.384,0.974 -0.727,1.907 -1.07,2.744c-0.343,0.837 -0.727,1.674 -1.07,2.429c-0.645,1.523 -1.235,2.826 -1.77,3.869c-0.535,1.043 -0.905,1.783 -1.207,2.387c-0.14,0.302 -0.305,0.591 -0.494,0.864z" fill="#bfbfbf" id="svg_232"/>
  <path d="m544.686,302.129c0.59,1.056 21.431,48.02 21.431,48.02l39.404,-13.94l10.331,18.248c0,0 -44.576,29.319 -56.375,28.523c-11.8,-0.795 -13.816,-2.99 -18.166,-12.238c-5.35,-11.346 -21.554,-53.055 -21.554,-53.055c0,0 -5.104,-23.036 10.414,-24.6c9.713,-0.988 14.515,9.042 14.515,9.042z" fill="#F26A22" id="svg_233"/>
  <path d="m544.686,302.128c0.59,1.057 21.431,48.02 21.431,48.02l39.404,-13.939l10.331,18.248c0,0 -44.576,29.319 -56.376,28.523c-11.799,-0.795 -13.816,-2.991 -18.165,-12.238c-5.351,-11.346 -21.554,-53.055 -21.554,-53.055c0,0 -5.9,-23.036 10.414,-24.6c9.713,-0.933 14.515,9.041 14.515,9.041z" fill="#7a0dfd" id="svg_234" stroke="null"/>
  <path d="m544.685,302.129l-0.453,-0.741c-0.44,-0.713 -0.921,-1.401 -1.441,-2.058c-0.846,-1.071 -1.797,-2.055 -2.84,-2.936c-1.421,-1.2 -3.068,-2.105 -4.843,-2.662c-2.229,-0.683 -4.603,-0.735 -6.86,-0.151c-2.712,0.56 -5.098,2.155 -6.654,4.445c-1.656,2.715 -2.556,5.822 -2.607,9.001c-0.151,3.559 0.186,7.123 1.002,10.592c5.008,12.732 10.976,27.783 17.836,44.247c1.742,4.116 3.485,8.328 5.666,12.43c0.997,2.081 2.44,3.917 4.226,5.378c1.953,1.314 4.192,2.142 6.531,2.415c1.18,0.192 2.387,0.329 3.594,0.439c1.189,0.151 2.392,0.151 3.581,0c2.418,-0.419 4.782,-1.1 7.052,-2.031c4.687,-1.879 9.267,-4.013 13.72,-6.393c11.923,-6.325 23.091,-13.185 33.546,-19.935l-0.124,0.452l-10.317,-18.247l0.398,0.151l-39.473,13.884l-0.233,0.083l-0.096,-0.234l-15.572,-35.15l-4.199,-9.604c-0.466,-1.084 -0.823,-1.921 -1.083,-2.511c-0.261,-0.59 -0.343,-0.864 -0.343,-0.864c0,0 0.15,0.274 0.411,0.823l1.153,2.483c1.001,2.209 2.455,5.42 4.335,9.536l15.778,35.068l-0.329,-0.137l39.376,-13.995l0.261,-0.096l0.137,0.247l10.345,18.234l0.165,0.275l-0.275,0.178c-10.454,6.778 -21.636,13.651 -33.586,19.99c-4.45,2.398 -9.031,4.547 -13.72,6.435c-2.319,0.947 -4.734,1.637 -7.203,2.058c-0.632,0.092 -1.27,0.128 -1.907,0.109c-0.618,0 -1.221,-0.096 -1.839,-0.137c-1.221,-0.11 -2.428,-0.247 -3.636,-0.453c-2.456,-0.288 -4.807,-1.159 -6.86,-2.538c-1.867,-1.528 -3.375,-3.449 -4.418,-5.625c-2.195,-4.116 -3.937,-8.383 -5.68,-12.485c-6.86,-16.464 -12.691,-31.556 -17.657,-44.316c-0.827,-3.522 -1.155,-7.143 -0.974,-10.756c0.079,-3.258 1.026,-6.436 2.744,-9.206c1.609,-2.351 4.068,-3.985 6.86,-4.555c2.317,-0.565 4.744,-0.494 7.024,0.205c1.795,0.579 3.456,1.512 4.885,2.744c1.017,0.903 1.937,1.91 2.744,3.005c0.73,0.892 1.352,1.869 1.852,2.909z" fill="#c9c9c9" id="svg_235"/>
  <path d="m555.759,389.826c-0.709,-0.117 -1.437,-0.032 -2.1,0.247c-0.325,0.157 -0.603,0.397 -0.805,0.696c-0.203,0.298 -0.322,0.646 -0.347,1.006c-0.034,0.432 0.062,0.865 0.274,1.244c0.213,0.378 0.533,0.685 0.92,0.882c0.404,0.156 0.846,0.186 1.267,0.086c0.421,-0.101 0.802,-0.327 1.092,-0.648c0.241,-0.262 0.4,-0.589 0.456,-0.941c0.056,-0.351 0.007,-0.711 -0.14,-1.035c-0.508,-1.235 -1.523,-1.372 -1.468,-1.468c0.055,-0.096 0.233,-0.082 0.631,0c0.568,0.221 1.033,0.647 1.303,1.194c0.22,0.418 0.31,0.891 0.258,1.361c-0.051,0.469 -0.241,0.912 -0.546,1.273c-0.373,0.447 -0.878,0.763 -1.443,0.904c-0.565,0.14 -1.16,0.098 -1.699,-0.122c-0.519,-0.257 -0.947,-0.667 -1.227,-1.175c-0.279,-0.508 -0.397,-1.089 -0.337,-1.665c0.048,-0.462 0.222,-0.902 0.502,-1.272c0.281,-0.371 0.658,-0.657 1.09,-0.827c0.556,-0.233 1.173,-0.277 1.756,-0.124c0.467,0.206 0.576,0.357 0.563,0.384z" fill="#455A64" id="svg_236"/>
  <path d="m508.793,401.008c0,-0.137 1.88,0.385 4.939,0.604c1.792,0.128 3.591,0.1 5.378,-0.082c2.179,-0.255 4.329,-0.714 6.421,-1.372c2.084,-0.676 4.1,-1.544 6.023,-2.593c1.567,-0.875 3.055,-1.885 4.446,-3.019c2.373,-1.934 3.594,-3.416 3.704,-3.32c-0.215,0.396 -0.482,0.761 -0.796,1.084c-0.326,0.415 -0.679,0.81 -1.056,1.18c-0.482,0.511 -0.99,0.997 -1.523,1.454c-1.379,1.198 -2.867,2.264 -4.445,3.183c-1.944,1.126 -3.999,2.045 -6.133,2.744c-2.146,0.652 -4.353,1.084 -6.586,1.29c-1.827,0.154 -3.665,0.131 -5.488,-0.069c-0.782,0 -1.468,-0.219 -2.071,-0.315c-0.525,-0.085 -1.042,-0.204 -1.551,-0.357c-0.435,-0.087 -0.859,-0.225 -1.262,-0.412z" fill="#455A64" id="svg_237"/>
  <path d="m573.496,520.565c4.406,-3.532 9.707,-5.769 15.312,-6.462c0,0.205 -3.609,1.029 -7.834,2.826c-4.226,1.797 -7.396,3.814 -7.478,3.636z" fill="#455A64" id="svg_238"/>
  <path d="m494.237,517.67c1.631,0.13 3.209,0.637 4.61,1.482c1.514,0.642 2.851,1.639 3.897,2.908c-1.446,-0.682 -2.857,-1.438 -4.226,-2.263c-1.466,-0.627 -2.896,-1.337 -4.281,-2.127z" fill="#455A64" id="svg_239"/>
  <path d="m583.102,303.762c0.325,0.39 0.602,0.818 0.823,1.276c0.494,0.837 1.139,2.099 1.907,3.663c1.938,4.122 3.552,8.388 4.829,12.76c1.325,4.36 2.243,8.833 2.744,13.363c0.137,1.367 0.201,2.741 0.192,4.116c0.011,0.506 -0.031,1.011 -0.123,1.509c-0.124,0 -0.11,-2.154 -0.576,-5.584c-0.641,-4.475 -1.613,-8.896 -2.909,-13.226c-1.278,-4.333 -2.818,-8.585 -4.61,-12.732c-1.344,-3.17 -2.277,-5.09 -2.277,-5.145z" fill="#ffffff" id="svg_240" fill-opacity="0"/>
  <path d="m577.19,295.776c0.168,-1.943 0.531,-3.864 1.084,-5.735l0.659,0.22c-0.22,0.507 -0.453,1.056 -0.714,1.591c-1.011,2.343 -2.454,4.475 -4.253,6.284c-0.192,-0.123 1.825,-2.854 3.608,-6.586l0.714,-1.564l0.658,0.22c-0.39,1.913 -0.978,3.779 -1.756,5.57z" fill="#bfbfbf" id="svg_241"/>
  <path d="m177.399,342.903l-77.243,16.835c-1.2697,0.277 -2.5811,0.3 -3.8596,0.07c-1.2786,-0.23 -2.4993,-0.71 -3.5924,-1.412c-1.0931,-0.702 -2.0373,-1.612 -2.7785,-2.679c-0.7413,-1.067 -1.2651,-2.269 -1.5416,-3.539l-23.324,-106.879c-0.2735,-1.275 -0.2922,-2.593 -0.0551,-3.876c0.2371,-1.283 0.7253,-2.506 1.4367,-3.6c0.7114,-1.094 1.6319,-2.037 2.7086,-2.774c1.0767,-0.737 2.2884,-1.254 3.5655,-1.521l48.9804,-10.674l46.428,30.815l16.876,77.476c0.278,1.272 0.301,2.586 0.069,3.866c-0.232,1.281 -0.715,2.503 -1.422,3.596c-0.706,1.093 -1.622,2.035 -2.694,2.772c-1.073,0.738 -2.28,1.256 -3.554,1.524z" fill="#7a0dfd" id="svg_242"/>
  <g opacity="0.2" id="svg_243">
   <path opacity="0.2" d="m82.1836,323.546l96.5164,-21.044l5.948,27.279c0.636,2.919 0.087,5.971 -1.527,8.485c-1.614,2.514 -4.16,4.284 -7.079,4.92l-74.666,16.28c-2.8764,0.627 -5.884,0.086 -8.3612,-1.504c-2.4772,-1.59 -4.2212,-4.1 -4.8483,-6.976l-5.9829,-27.44z" fill="black" id="svg_244"/>
  </g>
  <g opacity="0.3" id="svg_245">
   <path opacity="0.3" d="m121.641,222.854l6.558,30.087c0.257,1.184 0.745,2.305 1.436,3.299c0.691,0.994 1.572,1.842 2.592,2.495c1.02,0.653 2.159,1.097 3.351,1.309c1.192,0.211 2.415,0.185 3.597,-0.078l28.935,-6.297l-46.469,-30.815z" fill="white" id="svg_246"/>
  </g>
  <g opacity="0.2" id="svg_247">
   <path opacity="0.2" d="m129.159,255.494c0,0 1.208,7.381 10.043,7.971l1.002,0c3.924,-0.151 29.745,-1.139 29.621,-1.715c-0.123,-0.576 -1.756,-8.081 -1.756,-8.081l-28.935,6.297c0,0 -7.272,1.331 -9.975,-4.472z" fill="black" id="svg_248"/>
  </g>
  <path d="m100.713,344.811l-2.5533,-11.911l4.4073,-0.945c0.953,-0.204 1.775,-0.214 2.467,-0.03c0.692,0.183 1.251,0.52 1.676,1.011c0.426,0.49 0.713,1.081 0.861,1.773c0.141,0.658 0.124,1.296 -0.052,1.915c-0.178,0.608 -0.543,1.149 -1.094,1.623c-0.553,0.463 -1.318,0.799 -2.293,1.008l-2.229,0.478l0.988,4.611l-2.178,0.467zm0.81,-6.848l2.093,-0.448c0.76,-0.163 1.27,-0.445 1.528,-0.844c0.267,-0.413 0.339,-0.909 0.215,-1.488c-0.127,-0.59 -0.395,-1.013 -0.806,-1.269c-0.402,-0.269 -0.983,-0.323 -1.743,-0.16l-2.093,0.449l0.806,3.76zm13.185,3.848l-0.908,-4.237l-5.644,-6.817l2.468,-0.529l3.815,4.931l1.442,-6.058l2.434,-0.522l-2.337,8.528l0.909,4.237l-2.179,0.467zm11.008,-2.36l-2.177,-10.159l-3.472,0.745l-0.375,-1.753l9.137,-1.959l0.376,1.753l-3.488,0.747l2.177,10.159l-2.178,0.467zm7.959,-1.706l-2.553,-11.912l2.178,-0.466l1.062,4.951l5.343,-1.145l-1.062,-4.952l2.178,-0.467l2.554,11.911l-2.178,0.467l-1.113,-5.19l-5.343,1.146l1.113,5.19l-2.179,0.467zm18.319,-3.714c-1.191,0.255 -2.291,0.218 -3.299,-0.111c-0.996,-0.333 -1.849,-0.903 -2.556,-1.713c-0.699,-0.823 -1.178,-1.842 -1.438,-3.055c-0.26,-1.214 -0.239,-2.334 0.063,-3.36c0.311,-1.039 0.853,-1.915 1.626,-2.627c0.784,-0.713 1.772,-1.198 2.963,-1.453c1.18,-0.253 2.274,-0.215 3.282,0.115c1.008,0.329 1.861,0.906 2.559,1.729c0.697,0.812 1.175,1.825 1.435,3.039c0.26,1.213 0.24,2.339 -0.059,3.376c-0.302,1.026 -0.846,1.896 -1.63,2.61c-0.784,0.714 -1.766,1.197 -2.946,1.45zm-0.42,-1.957c1.135,-0.243 1.956,-0.811 2.465,-1.703c0.52,-0.894 0.641,-1.994 0.361,-3.299c-0.28,-1.304 -0.84,-2.258 -1.681,-2.861c-0.83,-0.605 -1.812,-0.786 -2.947,-0.543c-1.134,0.244 -1.961,0.812 -2.481,1.707c-0.521,0.895 -0.641,1.994 -0.361,3.299c0.28,1.304 0.84,2.258 1.681,2.861c0.841,0.603 1.829,0.782 2.963,0.539zm8.934,-0.082l-2.553,-11.911l2.178,-0.467l7.396,7.189l-1.798,-8.389l2.178,-0.467l2.553,11.911l-2.178,0.467l-7.393,-7.172l1.795,8.372l-2.178,0.467z" fill="white" id="svg_249"/>
  <path d="m925.042,236.546l-88.37,-10.619c-2.923,-0.357 -5.586,-1.856 -7.409,-4.169c-1.822,-2.314 -2.656,-5.254 -2.319,-8.179l14.708,-122.3139c0.354,-2.9245 1.852,-5.5899 4.166,-7.4128c2.314,-1.823 5.256,-2.6553 8.182,-2.3147l56.046,6.7366l38.005,49.8858l-10.661,88.659c-0.353,2.924 -1.851,5.59 -4.165,7.413c-2.314,1.823 -5.256,2.655 -8.183,2.314z" fill="#7a0dfd" id="svg_250"/>
  <path d="m885.75,121.337l8.878,1.084l-4.971,40.688c-4.653,0.304 -8.041,0.234 -11.663,-0.209c-10.841,-1.336 -15.893,-6.869 -14.757,-16.172c1.095,-8.964 7.793,-14.049 17.07,-12.916c1.44,0.176 2.522,0.423 3.806,0.925l1.637,-13.4zm-2.221,20.77c-0.999,-0.467 -1.842,-0.685 -2.938,-0.819c-4.49,-0.548 -7.419,1.874 -8.005,6.674c-0.571,4.673 1.593,7.556 6.14,8.111c0.983,0.12 1.789,0.163 3.078,0.148l1.725,-14.114z" fill="white" id="svg_251"/>
  <path d="m907.427,138.234l-2.489,20.371c-0.857,7.016 -1.795,10.326 -3.693,13.046c-1.781,2.62 -3.893,4.152 -8.05,5.621l-7.763,-4.888c4.142,-1.343 6.235,-2.72 7.746,-5.028c1.575,-2.356 2.33,-5.216 3.265,-12.867l2.118,-17.338l8.866,1.083l0,0zm-8.045,-15.232l8.877,1.084l-1.102,9.02l-8.877,-1.084l1.102,-9.02z" fill="white" id="svg_252"/>
  <g opacity="0.2" id="svg_253">
   <path opacity="0.2" d="m831.27,180.821l110.486,13.292l-3.794,31.535c-0.391,3.251 -2.058,6.214 -4.634,8.237c-2.575,2.022 -5.849,2.939 -9.101,2.547l-85.749,-10.316c-3.305,-0.397 -6.318,-2.092 -8.374,-4.71c-2.056,-2.619 -2.988,-5.947 -2.59,-9.253l3.769,-31.33l-0.013,-0.002z" fill="black" id="svg_254"/>
  </g>
  <g opacity="0.2" id="svg_255">
   <path opacity="0.2" d="m910.088,88.2334l-4.116,34.4236c-0.329,2.727 0.439,5.473 2.134,7.635c1.696,2.161 4.18,3.56 6.908,3.89l33.037,3.978l-37.963,-49.9266z" fill="white" id="svg_256"/>
  </g>
  <g opacity="0.2" id="svg_257">
   <path opacity="0.2" d="m906.042,125.729c0,0 -1.372,8.232 7.725,12.184c0.348,0.15 0.705,0.279 1.07,0.384c4.226,1.29 32.064,9.769 32.146,9.124c0.082,-0.645 1.111,-9.261 1.111,-9.261l-33.106,-3.979c0,0 -8.232,-1.276 -8.946,-8.452z" fill="black" id="svg_258"/>
  </g>
  <path d="m846.443,211.049l1.401,-12.101l4.132,0.479c1.417,0.164 2.552,0.552 3.404,1.165c0.864,0.602 1.463,1.384 1.795,2.345c0.346,0.951 0.448,2.037 0.306,3.259c-0.141,1.222 -0.49,2.262 -1.044,3.12c-0.542,0.848 -1.304,1.472 -2.285,1.873c-0.967,0.39 -2.16,0.503 -3.578,0.339l-4.131,-0.479zm2.433,-1.645l1.815,0.21c1.014,0.118 1.834,0.049 2.459,-0.206c0.626,-0.266 1.102,-0.69 1.426,-1.271c0.326,-0.593 0.539,-1.327 0.641,-2.203c0.1,-0.865 0.059,-1.623 -0.122,-2.274c-0.182,-0.652 -0.547,-1.179 -1.096,-1.581c-0.549,-0.403 -1.331,-0.662 -2.345,-0.78l-1.815,-0.21l-0.963,8.315zm13.686,3.722c-1.175,-0.136 -2.082,-0.574 -2.721,-1.313c-0.625,-0.75 -0.867,-1.736 -0.726,-2.958l2.213,0.257c-0.054,0.566 0.027,1.031 0.241,1.394c0.215,0.364 0.605,0.578 1.17,0.644c0.53,0.061 0.934,-0.05 1.212,-0.333c0.279,-0.295 0.449,-0.701 0.509,-1.22l0.997,-8.609l2.213,0.257l-0.997,8.608c-0.138,1.187 -0.578,2.065 -1.321,2.633c-0.73,0.558 -1.66,0.771 -2.79,0.64zm5.45,0.421l5.827,-11.588l2.49,0.288l3.024,12.614l-2.351,-0.273l-0.644,-2.912l-4.72,-0.547l-1.309,2.687l-2.317,-0.269zm4.432,-4.076l3.509,0.406l-1.181,-5.235l-2.328,4.829zm9.158,5.65l1.401,-12.101l2.213,0.257l4.7,9.181l0.987,-8.523l2.213,0.257l-1.402,12.101l-2.212,-0.257l-4.703,-9.164l-0.985,8.506l-2.212,-0.257zm18.414,2.343c-1.141,-0.132 -2.108,-0.507 -2.9,-1.124c-0.793,-0.617 -1.372,-1.414 -1.738,-2.391c-0.364,-0.988 -0.475,-2.099 -0.332,-3.332c0.144,-1.245 0.513,-2.312 1.106,-3.201c0.606,-0.899 1.39,-1.561 2.35,-1.987c0.973,-0.437 2.082,-0.583 3.327,-0.438c1.417,0.164 2.553,0.64 3.408,1.428c0.855,0.788 1.351,1.797 1.489,3.028l-2.472,-0.286c-0.119,-0.586 -0.403,-1.063 -0.851,-1.43c-0.446,-0.379 -1.05,-0.612 -1.81,-0.701c-1.211,-0.14 -2.189,0.138 -2.935,0.834c-0.745,0.685 -1.195,1.696 -1.35,3.032c-0.155,1.337 0.048,2.412 0.608,3.224c0.573,0.802 1.418,1.268 2.536,1.398c1.095,0.126 1.953,-0.072 2.574,-0.596c0.634,-0.534 1.065,-1.278 1.292,-2.233l-3.06,-0.354l0.193,-1.66l5.289,0.613l-0.77,6.656l-2.04,-0.237l0.011,-1.61c-0.459,0.531 -1,0.918 -1.623,1.161c-0.624,0.243 -1.391,0.312 -2.302,0.206zm14.441,1.673c-1.21,-0.14 -2.24,-0.528 -3.089,-1.164c-0.837,-0.634 -1.461,-1.448 -1.872,-2.441c-0.397,-1.004 -0.525,-2.123 -0.382,-3.356c0.143,-1.233 0.522,-2.287 1.137,-3.162c0.628,-0.885 1.422,-1.54 2.383,-1.966c0.972,-0.425 2.062,-0.567 3.273,-0.427c1.198,0.139 2.222,0.526 3.071,1.162c0.849,0.635 1.472,1.455 1.87,2.459c0.399,0.992 0.527,2.105 0.384,3.338c-0.143,1.233 -0.522,2.293 -1.139,3.179c-0.615,0.875 -1.409,1.524 -2.38,1.949c-0.972,0.425 -2.057,0.568 -3.256,0.429zm0.23,-1.988c1.153,0.133 2.113,-0.141 2.881,-0.823c0.78,-0.68 1.246,-1.683 1.4,-3.009c0.153,-1.325 -0.072,-2.408 -0.675,-3.249c-0.592,-0.839 -1.464,-1.325 -2.617,-1.459c-1.152,-0.133 -2.118,0.14 -2.898,0.821c-0.779,0.68 -1.246,1.683 -1.399,3.008c-0.154,1.326 0.071,2.409 0.674,3.25c0.604,0.84 1.482,1.327 2.634,1.461z" fill="white" id="svg_259"/>
  <path d="m114.985,256.438c-11.779,2.773 -9.841,7.708 -9.841,7.708l1.259,5.289l11.24,-2.647l0.374,1.589l-15.705,3.698c0,0 -7.7386,0.919 -4.9405,12.805c2.7985,11.885 9.2775,9.914 9.2775,9.914l3.926,-0.924l-1.298,-5.515c0,0 -1.76,-6.529 4.925,-8.103c6.685,-1.574 11.149,-2.625 11.149,-2.625c0,0 6.287,-1.373 4.838,-7.528c-1.449,-6.155 -2.396,-10.177 -2.396,-10.177c0,0 -0.499,-6.382 -12.808,-3.484zm-5.361,5.018c1.119,-0.264 2.235,0.427 2.499,1.546c0.263,1.118 -0.428,2.235 -1.546,2.498c-1.119,0.263 -2.236,-0.428 -2.499,-1.546c-0.263,-1.118 0.428,-2.235 1.546,-2.498z" fill="#EBEBEB" id="svg_260"/>
  <path d="m126.181,302.518c11.779,-2.774 9.841,-7.708 9.841,-7.708l-1.259,-5.289l-11.241,2.646l-0.374,-1.589l15.705,-3.697c0,0 7.739,-0.92 4.941,-12.805c-2.798,-11.885 -9.278,-9.915 -9.278,-9.915l-3.926,0.924l1.298,5.516c0,0 1.761,6.529 -4.925,8.102c-6.685,1.574 -11.148,2.625 -11.148,2.625c0,0 -6.288,1.374 -4.839,7.528c1.449,6.155 2.396,10.177 2.396,10.177c0,0 0.499,6.383 12.809,3.485zm5.36,-5.018c-1.118,0.263 -2.235,-0.428 -2.498,-1.546c-0.264,-1.119 0.428,-2.235 1.546,-2.499c1.118,-0.263 2.235,0.428 2.498,1.547c0.264,1.118 -0.428,2.235 -1.546,2.498z" fill="#EBEBEB" id="svg_261"/>
 </g>

</svg>