<?xml version="1.0" encoding="utf-8"?>
<svg viewBox="0 0 297.6 297.6" xmlns="http://www.w3.org/2000/svg">
  <defs>
    <linearGradient id="SvgjsLinearGradient1984">
      <stop id="SvgjsStop1985" stop-color="#00ff8f" offset="0"/>
      <stop id="SvgjsStop1986" stop-color="#00a1ff" offset="1"/>
    </linearGradient>
  </defs>
  <g id="SvgjsG1974" featurekey="rootContainer" transform="matrix(5.952, 0, 0, 5.952, 0.297596, 0)" fill="url(#SvgjsLinearGradient1984)">
    <path xmlns="http://www.w3.org/2000/svg" d="M24.95 0a25 25 0 1 0 25 25 25 25 0 0 0-25-25zm0 46.91a22 22 0 1 1 22-22 22 22 0 0 1-22 21.99z"/>
    <path xmlns="http://www.w3.org/2000/svg" d="M24.95 3.65a21.3 21.3 0 1 0 21.3 21.3 21.33 21.33 0 0 0-21.3-21.3z"/>
  </g>
  <g id="SvgjsG1975" featurekey="symbolFeature-0" transform="matrix(1.680405, 0, 0, 1.680405, 64.987357, 0.904343)" fill="#222831">
    <path xmlns="http://www.w3.org/2000/svg" class="st0" d="M49.6,44.9C39.4,44.9,31,53.2,31,63.5s8.4,18.6,18.6,18.6s18.6-8.4,18.6-18.6S59.9,44.9,49.6,44.9z M33.5,64.7  h5.3c0.1,2.3,0.4,4.5,0.9,6.5h-4.3C34.3,69.3,33.6,67.1,33.5,64.7z M50.8,53.4v-5.9c2.2,0.6,4.1,2.8,5.4,5.9H50.8z M57.1,55.8  c0.6,2,0.9,4.2,1,6.5h-7.3v-6.5H57.1z M48.4,47.5v5.9H43C44.4,50.3,46.3,48.1,48.4,47.5z M48.4,55.8v6.5h-7.3c0.1-2.3,0.5-4.6,1-6.5  H48.4z M38.8,62.3h-5.3c0.2-2.3,0.8-4.6,1.9-6.5h4.3C39.2,57.8,38.9,60,38.8,62.3z M41.2,64.7h7.3v6.5h-6.3  C41.6,69.3,41.3,67.1,41.2,64.7z M48.4,73.6v6c-2.2-0.6-4.1-2.8-5.4-6H48.4z M50.8,79.6v-6h5.4C54.9,76.8,53,79,50.8,79.6z   M50.8,71.3v-6.5h7.3c-0.1,2.3-0.5,4.6-1,6.5H50.8z M60.5,64.7h5.3c-0.2,2.3-0.8,4.6-1.9,6.5h-4.3C60.1,69.3,60.4,67.1,60.5,64.7z   M60.5,62.3c-0.1-2.3-0.4-4.5-0.9-6.5h4.3c1.1,2,1.7,4.2,1.9,6.5H60.5z M62.3,53.4h-3.5c-0.7-1.8-1.5-3.4-2.5-4.7  C58.7,49.8,60.7,51.4,62.3,53.4z M42.9,48.7c-1,1.3-1.8,2.9-2.5,4.7h-3.5C38.5,51.4,40.6,49.8,42.9,48.7z M36.9,73.6h3.5  c0.7,1.8,1.5,3.4,2.5,4.7C40.6,77.3,38.5,75.6,36.9,73.6z M56.3,78.3c1-1.3,1.8-2.9,2.5-4.7h3.5C60.7,75.6,58.7,77.3,56.3,78.3z" style="fill: rgb(0, 0, 0);"/>
    <path xmlns="http://www.w3.org/2000/svg" d="M81.7,44.1c-0.6-0.2-0.8-0.5-1-1.1c-1.3-6.2-7.2-10.4-13.5-9.7c-0.6,0.1-1.3,0.2-1.9,0.3c-3.2-6.9-8.5-11.2-16.1-11.5  c-9-0.4-15.1,4.1-18.6,12.3c-9-1.4-16,3.4-19.2,9.7C8.5,50,9,57,12.7,62.3h0l1.7,2.4h14.5v-2.4H15.6c-4.1-4.8-5-11.5-2.1-17.2  c1.7-3.4,4.4-5.9,7.9-7.5c3.5-1.5,7.2-1.6,10.9-0.6c2.3-7.7,7.2-12.2,15.3-12.9c3.8-0.3,7.3,0.9,10.4,3.2c3.1,2.3,5,5.3,6,8.9  c1.5-0.3,3-0.7,4.4-0.8c4.9-0.4,9.8,3.6,10.3,8.5c0.1,1.2,0.5,1.7,1.7,2.1c4.9,1.4,7.9,6.5,7,11.4c-0.4,1.9-1.2,3.6-2.4,5l-7.8-0.1  l0.8-1.9l-7.3,3.1l7.3,3.1l-0.8-1.9h9.3c0,0,2.8-3.4,3.3-7.9C90.4,51.3,86.9,46.1,81.7,44.1z" style="fill: rgb(0, 0, 0);"/>
  </g>
  <g id="SvgjsG1977" featurekey="nameLeftFeature-0" transform="matrix(2.629707, 0, 0, 2.629707, 87.326323, 145.374617)" fill="#222831">
    <path d="M5.8303 6.441000000000001 c4.4068 0 6.9661 3.5424 6.9661 6.7288 c0 3.6102 -2.5763 6.8303 -6.9661 6.8303 l-4.4746 0 c-0.18644 0 -0.33898 -0.15238 -0.33898 -0.33881 l0 -12.898 c0 -0.16949 0.13559 -0.32203 0.32203 -0.32203 l4.4915 0 z M5.8303 17.6612 c2.7966 0 4.4746 -2.1866 4.4576 -4.5086 c0 -2.288 -1.5932 -4.3727 -4.4576 -4.3727 l-2.4068 0 l0.016949 8.8814 l2.3898 0 z M21.677813559322033 20.11864 c3.7966 0 6.8983 -3.0507 6.8983 -6.9151 c0 -3.8305 -3.1017 -6.8814 -6.8983 -6.8814 c-3.8305 0 -6.9322 3.0508 -6.9322 6.8814 c0 3.8644 3.1017 6.9151 6.9322 6.9151 z M21.677813559322033 17.7798 c-2.4407 0 -4.5085 -2.1017 -4.5085 -4.5763 c0 -2.4576 2.0678 -4.5422 4.5085 -4.5422 s4.4915 2.0846 4.4915 4.5422 c0 2.4746 -2.0508 4.5763 -4.4915 4.5763 z M41.06722033898305 19.61017 c0.13559 0.20339 0.034064 0.38983 -0.23712 0.38983 l-1.5763 0 c-0.47458 0 -0.88136 -0.44068 -1.0339 -0.69492 l-2.339 -3.5763 l-2.8475 0 l0 3.9322 c0 0.20339 -0.13559 0.33881 -0.32203 0.33881 l-1.7966 0 c-0.16949 0 -0.30508 -0.13543 -0.30508 -0.33881 l0 -12.898 c0 -0.16949 0.13559 -0.32203 0.32203 -0.32203 l5.4068 0 c2.7797 0 4.4915 2.5763 4.4915 4.6441 c0 1.6442 -0.98305 3.4576 -2.661 4.2373 z M33.034020338983055 8.78 l0.00033103 4.6102 l2.9659 0 c1.6102 0 2.3898 -1.1695 2.3898 -2.3559 c0 -1.1356 -0.79661 -2.2542 -2.3902 -2.2542 l-2.9659 0 z M45.1693593220339 6.441000000000001 l-1.6778 0 c-0.18644 0 -0.32203 0.15254 -0.32203 0.32203 l0 12.898 c0 0.18644 0.15254 0.33881 0.33898 0.33881 l1.678 0 c0.16933 0 0.32186 -0.16933 0.32186 -0.33881 l0 -12.898 c0 -0.16949 -0.16949 -0.32203 -0.33898 -0.32203 z" style="fill: rgb(0, 0, 0);"/>
  </g>
  <g id="SvgjsG1978" featurekey="nameRightFeature-0" transform="matrix(2.615421, 0, 0, 2.615421, 85.593253, 193.155363)" fill="#222831">
    <path d="M10.304925423728813 6.441000000000001 c4.6271 0 6.9153 3.4239 6.9153 6.6949 c0 3.4576 -2.3051 6.8642 -6.8644 6.8642 l-4.6271 0 c-0.15254 0 -0.22034 -0.08458 -0.22034 -0.22017 l0 -13.119 c0 -0.15254 0.067797 -0.22034 0.22034 -0.22034 l4.5763 0 z M10.423525423728814 18.7122 c3.5422 0 5.4576 -2.7798 5.4407 -5.5764 c0 -2.7797 -1.8644 -5.4066 -5.4407 -5.4066 l-3.5932 0 l0.016949 10.983 l3.5763 0 z M28.118442372881354 7.728999999999999 l-7.3556 0.00049656 l0 4.9659 l4.5424 0 c0.15254 0 0.23729 0.067797 0.23729 0.23729 l0 0.81339 c0 0.15254 -0.084746 0.22034 -0.23729 0.22034 l-4.5424 0 l0 4.7458 l7.3559 0 c0.15254 0 0.23712 0.084746 0.23712 0.23712 l0 0.81356 c0 0.16949 -0.067797 0.23712 -0.23729 0.23712 l-8.4746 0 c-0.15254 0 -0.22034 -0.08458 -0.22034 -0.22017 l0 -13.119 c0 -0.15254 0.084746 -0.22034 0.22034 -0.22034 l8.4746 0 c0.15254 0 0.23712 0.084746 0.23712 0.22034 l0 0.84746 c0 0.13559 -0.067797 0.22034 -0.23729 0.22034 z M42.79693220338983 6.441000000000001 c0.11864 0 0.23763 0.11881 0.15287 0.30525 l-6.2544 13.153 c-0.050847 0.10153 -0.13559 0.16933 -0.25424 0.16933 l-0.13559 0 c-0.10169 0 -0.18644 -0.067797 -0.23729 -0.16933 l-6.2542 -13.169 c-0.084746 -0.16966 0.033898 -0.28831 0.15254 -0.28831 l1.1356 0 c0.13559 0 0.18644 0.10169 0.25424 0.27119 l5.0168 10.864 l5.0339 -10.864 c0.067797 -0.16949 0.11864 -0.27119 0.25424 -0.27119 l1.1356 0 z" style="fill: rgb(0, 0, 0);"/>
  </g>
</svg>