<svg width="1108" height="731.18" xmlns="http://www.w3.org/2000/svg" data-name="Layer 1">
 <title>react</title>

 <g>
  <title>Layer 1</title>
  <ellipse id="svg_3" fill="#3f3d56" ry="23.5" rx="554" cy="707.68" cx="554"/>
  <ellipse id="svg_4" opacity="0.1" ry="23.5" rx="554" cy="707.68" cx="554"/>
  <ellipse id="svg_5" fill="#3f3d56" ry="23.5" rx="554" cy="694.68" cx="554"/>
  <path id="svg_6" stroke-width="4" stroke-miterlimit="10" stroke="#3f3d56" fill="none" d="m85,686.32c-3,-5.51 0.4,-12.26 4.28,-17.18s8.61,-10 8.51,-16.29c-0.14,-9 -9.7,-14.31 -17.33,-19.08a84.78,84.78 0 0 1 -15.56,-12.51a23,23 0 0 1 -4.78,-6.4c-1.58,-3.52 -1.53,-7.52 -1.43,-11.38q0.5,-19.26 1.9,-38.48"/>
  <path id="svg_7" fill="#953ffd" d="m46.11,564.29a14,14 0 0 1 7,-11.49l3.14,6.21l-0.09,-7.52a13.86,13.86 0 0 1 4.62,-0.56a14,14 0 1 1 -14.67,13.36z"/>
  <path id="svg_8" fill="#953ffd" d="m71.14,659.29a14,14 0 0 0 26.5,-5.76a13.82,13.82 0 0 0 -0.91,-5.69a14,14 0 0 0 -26.27,0.15l8.77,7.13l-9.64,-2.24a13.89,13.89 0 0 0 1.55,6.41z"/>
  <path id="svg_9" fill="#953ffd" d="m78.07,632.04a14,14 0 0 0 4.46,-27.54l0.07,5.79l-3.18,-6.29l0,0a14,14 0 0 0 -1.31,28.05l-0.04,-0.01z"/>
  <path id="svg_10" fill="#953ffd" d="m44,609.37a14,14 0 0 0 1.32,-28a13.88,13.88 0 0 0 -7.52,1.78l2.48,6.8l-5.11,-4.9a14,14 0 0 0 -4.53,9.69a13.33,13.33 0 0 0 0.36,3.85a14,14 0 0 0 13,10.78z"/>
  <path id="svg_11" opacity="0.1" d="m48,568.03c3.24,0.36 6.39,1.37 9.64,1.57s6.82,-0.58 8.88,-3.1c1.11,-1.37 1.66,-3.09 2.59,-4.57a10.08,10.08 0 0 1 3.54,-3.33a14,14 0 1 1 -26.24,9.32c0.53,0.02 1.06,0.06 1.59,0.11z"/>
  <path fill="#7a0dfd" id="svg_12" opacity="0.1" d="m44,609.37a14,14 0 0 0 13.35,-20a10.4,10.4 0 0 0 -2.82,2.83c-1,1.51 -1.61,3.25 -2.78,4.64c-2.19,2.57 -5.92,3.41 -9.31,3.25s-6.66,-1.11 -10,-1.42c-0.47,0 -0.94,-0.08 -1.41,-0.09a14,14 0 0 0 12.97,10.79z"/>
  <path id="svg_13" opacity="0.1" d="m78.07,632.04a14,14 0 0 0 13.47,-19.76a11.36,11.36 0 0 0 -3,2.85c-1.09,1.54 -1.77,3.31 -3,4.73c-2.36,2.64 -6.34,3.57 -9.93,3.48s-6.82,-0.93 -10.28,-1.19a14,14 0 0 0 12.74,9.89z"/>
  <path fill="#7a0dfd" id="svg_14" opacity="0.1" d="m71.14,659.29a14,14 0 0 0 26.5,-5.76a13.82,13.82 0 0 0 -0.91,-5.69a14,14 0 0 0 -3.08,2.74c-1.34,1.63 -2.21,3.47 -3.76,5c-2.87,2.82 -7.5,4 -11.62,4.09a62.35,62.35 0 0 1 -7.13,-0.38z"/>
  <path id="svg_15" fill="#656380" d="m106.19,679.98s-11.08,-0.34 -14.41,-2.72s-17,-5.22 -17.87,-1.4s-16.65,19 -4.14,19.06s29.06,-2 32.39,-4s4.03,-10.94 4.03,-10.94z"/>
  <path id="svg_16" opacity="0.2" d="m69.54,693.59c12.51,0.1 29.06,-2 32.4,-4c2.53,-1.54 3.54,-7.09 3.88,-9.65l0.37,0s-0.7,8.93 -4,11s-19.89,4.08 -32.39,4c-3.61,0 -4.86,-1.31 -4.79,-3.22c0.47,1.13 1.85,1.87 4.53,1.87z"/>
  <path id="svg_17" stroke-width="4" stroke-miterlimit="10" stroke="#3f3d56" fill="none" d="m1055,695.32c-3,-5.51 0.4,-12.26 4.28,-17.18s8.61,-10 8.51,-16.29c-0.14,-9 -9.7,-14.31 -17.33,-19.08a84.78,84.78 0 0 1 -15.56,-12.51a23,23 0 0 1 -4.78,-6.4c-1.58,-3.52 -1.53,-7.52 -1.43,-11.38q0.49,-19.26 1.9,-38.48"/>
  <path id="svg_18" fill="#953ffd" d="m1016.11,573.29a14,14 0 0 1 7,-11.49l3.14,6.21l-0.09,-7.52a13.86,13.86 0 0 1 4.62,-0.56a14,14 0 1 1 -14.68,13.36l0.01,0z"/>
  <path id="svg_19" fill="#953ffd" d="m1041.14,668.29a14,14 0 0 0 26.5,-5.76a13.82,13.82 0 0 0 -0.91,-5.69a14,14 0 0 0 -26.27,0.15l8.77,7.13l-9.64,-2.24a13.89,13.89 0 0 0 1.55,6.41z"/>
  <path id="svg_20" fill="#953ffd" d="m1048.07,641.04a14,14 0 0 0 4.46,-27.54l0.07,5.79l-3.18,-6.29l0,0a14,14 0 0 0 -1.31,28.05l-0.04,-0.01z"/>
  <path id="svg_21" fill="#953ffd" d="m1014,618.37a14,14 0 0 0 1.32,-28a13.88,13.88 0 0 0 -7.52,1.78l2.48,6.8l-5.11,-4.9a14,14 0 0 0 -4.53,9.69a13.33,13.33 0 0 0 0.36,3.85a14,14 0 0 0 13,10.78z"/>
  <path id="svg_22" opacity="0.1" d="m1018,577.03c3.24,0.36 6.39,1.37 9.64,1.57s6.82,-0.58 8.88,-3.1c1.11,-1.37 1.66,-3.09 2.59,-4.57a10.08,10.08 0 0 1 3.54,-3.33a14,14 0 1 1 -26.24,9.32c0.53,0.02 1.06,0.06 1.59,0.11z"/>
  <path fill="#953ffd" id="svg_23" opacity="0.1" d="m1014,617.25889a14,14 0 0 0 13.35,-20a10.4,10.4 0 0 0 -2.82,2.83c-1,1.51 -1.61,3.25 -2.78,4.64c-2.19,2.57 -5.92,3.41 -9.31,3.25s-6.66,-1.11 -10,-1.42c-0.47,0 -0.94,-0.08 -1.41,-0.09a14,14 0 0 0 12.97,10.79z"/>
  <path id="svg_24" opacity="0.1" d="m1048.07,641.04a14,14 0 0 0 13.47,-19.76a11.36,11.36 0 0 0 -3,2.85c-1.09,1.54 -1.77,3.31 -3,4.73c-2.36,2.64 -6.34,3.57 -9.93,3.48s-6.82,-0.93 -10.28,-1.19a14,14 0 0 0 12.74,9.89z"/>
  <path id="svg_25" opacity="0.1" d="m1041.14,668.29a14,14 0 0 0 26.5,-5.76a13.82,13.82 0 0 0 -0.91,-5.69a14,14 0 0 0 -3.08,2.74c-1.34,1.63 -2.21,3.47 -3.76,5c-2.87,2.82 -7.5,4 -11.62,4.09a62.35,62.35 0 0 1 -7.13,-0.38z"/>
  <path id="svg_26" fill="#656380" d="m1076.19,688.98s-11.08,-0.34 -14.41,-2.72s-17,-5.22 -17.87,-1.4s-16.65,19 -4.14,19.06s29.06,-2 32.39,-4s4.03,-10.94 4.03,-10.94z"/>
  <path id="svg_27" opacity="0.2" d="m1039.54,702.59c12.51,0.1 29.06,-2 32.4,-4c2.53,-1.54 3.54,-7.09 3.88,-9.65l0.37,0s-0.7,8.93 -4,11s-19.89,4.08 -32.39,4c-3.61,0 -4.86,-1.31 -4.79,-3.22c0.47,1.13 1.85,1.87 4.53,1.87z"/>
  <path id="svg_28" fill="#7a0dfd" d="m745.57,331.15q-9.92,-3.4 -20,-6.3q1.66,-6.79 3.09,-13.65c15.14,-73.51 5.24,-132.73 -28.57,-152.22c-32.42,-18.7 -85.44,0.8 -139,47.39q-7.92,6.92 -15.47,14.2q-5.07,-4.85 -10.3,-9.51c-56.11,-49.83 -112.32,-70.82 -146.14,-51.27c-32.39,18.75 -42,74.42 -28.35,144.09q2,10.35 4.59,20.58c-7.95,2.26 -15.64,4.67 -23,7.24c-65.79,22.89 -107.81,58.89 -107.81,96.18c0,38.51 45.11,77.14 113.64,100.56q8.34,2.83 16.8,5.26q-2.74,11 -4.88,22.18c-13,68.46 -2.84,122.82 29.46,141.45c33.37,19.26 89.37,-0.54 143.89,-48.2c4.31,-3.77 8.63,-7.77 13,-11.95q8.18,7.89 16.79,15.32c52.82,45.45 105,63.81 137.26,45.12c33.33,-19.29 44.16,-77.69 30.1,-148.73q-1.6,-8.14 -3.73,-16.61q5.91,-1.74 11.56,-3.61c71.24,-23.6 117.6,-61.76 117.6,-100.79c0,-37.43 -43.38,-73.62 -110.5,-96.73l-0.03,0z"/>
  <path id="svg_29" fill="#fff" d="m730.12,503.47c-3.4,1.13 -6.88,2.21 -10.44,3.27a621.6,621.6 0 0 0 -31.47,-78.73a623.06,623.06 0 0 0 30.25,-77.58c6.35,1.84 12.53,3.78 18.47,5.83c57.51,19.79 92.59,49.06 92.59,71.62c0,24 -37.89,55.21 -99.4,75.59zm-25.52,50.58c6.22,31.41 7.1,59.81 3,82c-3.7,19.95 -11.14,33.25 -20.34,38.58c-19.59,11.33 -61.47,-3.4 -106.64,-42.27q-7.77,-6.69 -15.63,-14.25a624.23,624.23 0 0 0 52.09,-66.14a620.2,620.2 0 0 0 84.17,-13q1.9,7.68 3.37,15l-0.02,0.08zm-258.12,118.64c-19.14,6.76 -34.38,6.95 -43.59,1.64c-19.6,-11.31 -27.75,-55 -16.63,-113.5q2,-10.37 4.53,-20.63a625.79,625.79 0 0 0 83.75,12.13a645.09,645.09 0 0 0 53.35,65.9q-5.79,5.61 -11.84,10.91c-24.11,21.08 -48.28,36 -69.57,43.55zm-89.64,-169.37c-30.31,-10.36 -55.33,-23.82 -72.49,-38.5c-15.41,-13.2 -23.19,-26.31 -23.19,-36.94c0,-22.63 33.74,-51.5 90,-71.11q10.6,-3.69 21.39,-6.73a637.08,637.08 0 0 0 30.29,78.48a646.29,646.29 0 0 0 -30.66,79.6q-7.74,-2.21 -15.34,-4.8zm30.05,-204.54c-11.68,-59.69 -3.93,-104.72 15.59,-116c20.79,-12 66.76,5.12 115.22,48.15c3.1,2.75 6.21,5.63 9.32,8.6a635.89,635.89 0 0 0 -52.93,65.52a648.42,648.42 0 0 0 -82.93,12.89q-2.39,-9.52 -4.27,-19.15l0,-0.01zm268.11,66.19q-9.11,-15.74 -18.89,-31.08c19.83,2.51 38.82,5.83 56.66,9.91a565.54,565.54 0 0 1 -19.89,53.51q-8.61,-16.35 -17.88,-32.34zm-109.36,-106.47a569.3,569.3 0 0 1 36.57,44.14q-36.71,-1.73 -73.45,0c12.07,-15.92 24.44,-30.72 36.88,-44.13l0,-0.01zm-110,106.65q-9.15,15.87 -17.55,32.14c-7.73,-18.33 -14.34,-36.36 -19.74,-53.77c17.73,-4 36.64,-7.21 56.34,-9.68q-9.92,15.44 -19.07,31.31l0.02,0zm19.61,158.65a564.64,564.64 0 0 1 -57.25,-9.21c5.49,-17.71 12.25,-36.13 20.15,-54.86q8.43,16.29 17.61,32.16q9.34,16.19 19.47,31.91l0.02,0zm91.14,75.33c-12.6,-13.54 -25.15,-28.54 -37.39,-44.75q17.85,0.71 36.36,0.71q19,0 37.51,-0.84a563.94,563.94 0 0 1 -36.5,44.88l0.02,0zm126.69,-140.35a562.82,562.82 0 0 1 20.92,54.66a561.35,561.35 0 0 1 -58,9.89q9.85,-15.63 19.08,-31.63q9.38,-16.26 18,-32.92zm-41,19.66q-14.12,24.52 -29.81,48.1c-18.44,1.32 -37.49,2 -56.91,2s-38.15,-0.6 -56.27,-1.78q-16.09,-23.5 -30.39,-48.17t-26.51,-50.08q12.27,-25.53 26.43,-50.1l0,0q14.14,-24.56 30.13,-48c18.49,-1.4 37.43,-2.13 56.59,-2.13s38.22,0.74 56.69,2.14q15.81,23.37 30,47.81t26.79,49.87q-12.45,25.62 -26.71,50.3l-0.03,0.04zm54.77,-296.46c20.81,12 28.9,60.4 15.83,123.87q-1.29,6.19 -2.8,12.35a635.74,635.74 0 0 0 -83.09,-13.13a625.16,625.16 0 0 0 -52.53,-65.56q7,-6.74 14.29,-13.11c45.88,-39.93 88.76,-55.69 108.3,-44.42z"/>
  <path id="svg_30" fill="#7a0dfd" d="m545.34,372.38a55.5,55.5 0 1 1 -55.5,55.5a55.49,55.49 0 0 1 55.5,-55.5"/>
  <path id="svg_31" fill="#3f3d56" d="m559.26,20.4a16.6,16.6 0 1 1 -16.6,-16.6a16.52,16.52 0 0 1 16.6,16.6z"/>
  <path id="svg_32" fill="#3f3d56" d="m529.4,24.59a16.62,16.62 0 0 1 12.49,-24.54a16.6,16.6 0 1 0 1.41,33.07a16.6,16.6 0 0 1 -13.9,-8.53z"/>
  <rect id="svg_33" fill="#3f3d56" height="69.37" width="44.47" y="43.52" x="521.91"/>
  <rect id="svg_34" opacity="0.1" height="69.37" width="44.47" y="43.52" x="521.91"/>
  <path id="svg_35" fill="#a0616a" d="m451.66,295.2s-4.75,13.05 -16,14.83s-17.79,4.74 -17.79,4.74l26.68,17.19l14.23,-1.78s1.78,-18.38 7.71,-22.53s-14.83,-12.45 -14.83,-12.45z"/>
  <path id="svg_36" fill="#a0616a" d="m644.34,295.2s4.75,13.05 16,14.83s17.79,4.74 17.79,4.74l-26.68,17.19l-14.23,-1.78s-1.78,-18.38 -7.71,-22.53s14.83,-12.45 14.83,-12.45z"/>
  <path id="svg_37" fill="#3f3d56" d="m514.5,180.18s-7.11,3.56 -9.48,10.68c0,0 -13,4.15 -20.16,15.41c0,0 -8.9,9.49 -10.08,14.23s-14.78,33.2 -14.78,33.2s-13.64,44.47 -20.75,49.21c0,0 22.53,-4.74 26.68,17.79c0,0 5.33,0 11.26,-20.75s20.16,-46.25 20.16,-46.25s4.74,-17.78 8.89,-20.75s10.67,-16.6 16.6,-13s45.06,-0.6 45.06,-0.6s23.1,10.64 23.68,17.75s4.74,7.71 5.33,13.64s22.53,52.76 22.53,52.76s4.15,13 5.34,16c0,0 13,-31.42 30.24,-13.63c0,0 -0.6,-11.86 -5.93,-19s-28.46,-62.84 -28.46,-62.84s-2.37,-8.3 -4.74,-10.67s-20.76,-21.35 -27.28,-21.35c0,0 -3.55,-8.89 -7.7,-10.08l-66.41,-1.75z"/>
  <path id="svg_38" fill="#3f3d56" d="m461.14,326.03a28.89,28.89 0 0 1 -28.22,-3.79a56.37,56.37 0 0 0 -12.59,-7.3c-6.29,-2.54 -13.81,-4.42 -16.1,-0.17c-4.15,7.71 50.39,26.68 50.39,26.68s7.12,-4.15 6.52,-15.42z"/>
  <path id="svg_39" fill="#3f3d56" d="m634.86,326.03a28.89,28.89 0 0 0 28.22,-3.79a56.37,56.37 0 0 1 12.59,-7.3c6.29,-2.54 13.81,-4.42 16.1,-0.17c4.15,7.71 -50.39,26.68 -50.39,26.68s-7.12,-4.15 -6.52,-15.42z"/>
  <path id="svg_40" fill="#a0616a" d="m533.88,82.67c-0.22,2.06 -0.9,4.29 -2.66,5.38c-1.44,0.9 -3.26,0.83 -4.92,1.17a11.46,11.46 0 0 0 -7.82,6.77a17.51,17.51 0 0 0 -0.75,10.55a39.22,39.22 0 0 0 1.52,5.06c1.74,4.92 3.84,9.8 7.09,13.89a59,59 0 0 0 9.3,8.77c2.11,1.72 4.29,3.47 6.89,4.28a21.75,21.75 0 0 0 5.4,0.72c2.25,0.1 4.65,0.17 6.6,-0.95c3,-1.73 3.89,-5.55 5.52,-8.62c1.38,-2.6 3.44,-4.81 4.73,-7.46a29.49,29.49 0 0 0 2,-6.52l2.77,-12.3c1,-4.47 1.92,-9.51 -0.59,-13.34a2.28,2.28 0 0 0 -0.74,-0.77a2.79,2.79 0 0 0 -1.52,-0.15a16.44,16.44 0 0 1 -9.15,-2.09a3.93,3.93 0 0 1 -1.15,-0.9a4.72,4.72 0 0 1 -0.7,-2.12a22.2,22.2 0 0 0 -1.28,-4.45a3,3 0 0 0 -0.87,-1.34a3.15,3.15 0 0 0 -1.41,-0.47a114.47,114.47 0 0 0 -12.93,-1.35c-1.42,-0.07 -3.56,-0.64 -4.54,0.62s-0.67,4.12 -0.79,5.62z"/>
  <path id="svg_41" opacity="0.1" d="m533.88,82.67c-0.22,2.06 -0.9,4.29 -2.66,5.38c-1.44,0.9 -3.26,0.83 -4.92,1.17a11.46,11.46 0 0 0 -7.82,6.77a17.51,17.51 0 0 0 -0.75,10.55a39.22,39.22 0 0 0 1.52,5.06c1.74,4.92 3.84,9.8 7.09,13.89a59,59 0 0 0 9.3,8.77c2.11,1.72 4.29,3.47 6.89,4.28a21.75,21.75 0 0 0 5.4,0.72c2.25,0.1 4.65,0.17 6.6,-0.95c3,-1.73 3.89,-5.55 5.52,-8.62c1.38,-2.6 3.44,-4.81 4.73,-7.46a29.49,29.49 0 0 0 2,-6.52l2.77,-12.3c1,-4.47 1.92,-9.51 -0.59,-13.34a2.28,2.28 0 0 0 -0.74,-0.77a2.79,2.79 0 0 0 -1.52,-0.15a16.44,16.44 0 0 1 -9.15,-2.09a3.93,3.93 0 0 1 -1.15,-0.9a4.72,4.72 0 0 1 -0.7,-2.12a22.2,22.2 0 0 0 -1.28,-4.45a3,3 0 0 0 -0.87,-1.34a3.15,3.15 0 0 0 -1.41,-0.47a114.47,114.47 0 0 0 -12.93,-1.35c-1.42,-0.07 -3.56,-0.64 -4.54,0.62s-0.67,4.12 -0.79,5.62z"/>
  <path id="svg_42" fill="#953ffd" d="m525.85,89.74a26.93,26.93 0 0 0 -7.13,-1.12c-5.72,-0.14 -11.84,1.83 -15.14,6.5a15.34,15.34 0 0 0 -2.29,11.47a23.57,23.57 0 0 0 5.2,10.66a32,32 0 0 1 4,5.24c1.58,3 1.63,6.59 2.06,10c1,8.12 4.46,15.75 5.83,23.82s0.19,17.42 -6.18,22.55c-1.07,0.86 -2.37,1.77 -2.46,3.14c-0.14,2.19 2.71,3.12 4.9,3.33c6.55,0.62 13.27,1.23 19.63,-0.46c2.63,-0.7 5.17,-1.79 7.85,-2.29c6.8,-1.27 13.64,1.34 20.45,2.59a90.61,90.61 0 0 0 14.91,1.21a7.94,7.94 0 0 0 3.43,-0.45a2.75,2.75 0 0 0 1.74,-2.74a4.76,4.76 0 0 0 -1.18,-2c-3.44,-4.25 -4.49,-9.9 -5.43,-15.29l-3.15,-18.11c-1.69,-9.68 -3.26,-20.2 1.32,-28.89c3.29,-6.25 9.36,-10.65 12.83,-16.8a9.84,9.84 0 0 0 1.55,-6.28c-0.52,-3.09 -3.31,-5.3 -6.17,-6.59a23.21,23.21 0 0 0 -17.42,-0.64c0.1,4.33 -1,8.71 -1.71,13l-1.21,7a88.83,88.83 0 0 1 -2.71,12.2a12.85,12.85 0 0 1 -2.17,4.42a11.43,11.43 0 0 1 -3.83,2.79a22.83,22.83 0 0 1 -10.14,2.32a13.54,13.54 0 0 1 -4.48,-0.69a19,19 0 0 1 -6.17,-4.34a10.11,10.11 0 0 1 -1.63,-1.77a9.93,9.93 0 0 1 -1.11,-2.67a55.42,55.42 0 0 1 -1.91,-7.48c-0.3,-1.94 -0.4,-3.91 -0.54,-5.87c-0.39,-5.79 -0.39,-12.19 -1.54,-17.76z"/>
  <path id="svg_43" fill="#a0616a" d="m519.84,204.49s-2.37,31.43 12.45,36.76s1.78,-26.09 1.78,-26.09l-4.75,-9.48l-9.48,-1.19z"/>
  <path id="svg_44" fill="#a0616a" d="m570.23,204.49s2.37,31.43 -12.45,36.76s-1.78,-26.09 -1.78,-26.09l4.75,-9.48l9.48,-1.19z"/>
  <path id="svg_45" opacity="0.1" d="m506.79,99.59l-4.74,7.71s4.15,26.68 4.74,31.42a62.2,62.2 0 0 0 2.38,10.08s0.59,14.23 0.59,19.57s3,14.23 3,14.23a64.82,64.82 0 0 0 3,14.82c2.37,6.52 4.74,14.23 4.74,14.23s3,-8.3 14.82,4.15a7.18,7.18 0 0 0 0,-10.08s-3.55,-16 -3.55,-24.31s-6.53,-48 -6.53,-48s-4.24,-45.12 -18.45,-33.82z"/>
  <path id="svg_46" fill="#953ffd" d="m505.61,98.96l-4.74,7.71s4.15,26.68 4.74,31.42a61.84,61.84 0 0 0 2.39,10.08s0.59,14.23 0.59,19.56s3,14.23 3,14.23a64.53,64.53 0 0 0 3,14.82c2.37,6.53 4.75,14.23 4.75,14.23s3,-8.3 14.82,4.15a7.18,7.18 0 0 0 0,-10.07s-3.56,-16 -3.56,-24.31s-6.52,-48 -6.52,-48s-4.24,-45.09 -18.47,-33.82z"/>
  <path id="svg_47" opacity="0.1" d="m583.87,94.81l3,3.53s3.49,20.18 -4.22,45.68l-2.37,23.12s-4.15,19.57 -4.74,24.31s-0.59,5.33 -1.78,7.11a2.29,2.29 0 0 0 0,3l-3.56,13s-5.33,-6.52 -16,1.78c0,0 -3,-4.74 -0.6,-8.89s2.37,-5.93 1.78,-7.12s2.37,-7.11 2.37,-8.3s4.18,-28.44 4.18,-28.44s1.78,-26.68 3.56,-35.57c1.09,-5.47 1.07,-17.66 0.88,-26.24c-0.19,-8.94 10.63,-13.78 17,-7.5c0.15,0.16 0.33,0.31 0.5,0.53z"/>
  <path id="svg_48" fill="#953ffd" d="m585.65,93.59l3,3.53s3.49,20.19 -4.22,45.68l-2.37,23.12s-4.15,19.57 -4.74,24.31s-0.6,5.34 -1.78,7.12a2.28,2.28 0 0 0 0,3l-3.54,13.04s-5.33,-6.53 -16,1.77c0,0 -3,-4.74 -0.59,-8.89s2.37,-5.93 1.78,-7.11s2.37,-7.12 2.37,-8.3s4.15,-28.46 4.15,-28.46s1.78,-26.68 3.56,-35.58s0.59,-35.57 0.59,-35.57s9.49,-6.52 17.79,2.34z"/>
  <circle id="svg_49" fill="#a0616a" r="23.72" cy="61.61" cx="545.92"/>
  <path id="svg_50" opacity="0.1" d="m558.29,26a16.6,16.6 0 0 1 -31.09,0.44c9.26,-3.73 18.72,-0.41 18.72,-0.41c4.73,-1.66 8.83,-1.51 12.37,-0.03z"/>
  <path id="svg_51" fill="#3f3d56" d="m545.92,27.22s-45.65,-16 -34.38,61.66c0,0 10.08,6.52 17.78,2.37c0,0 -5.33,-53.95 15.42,-51.58s17.19,50.4 17.19,50.4s11.86,3.55 15.42,-3s-1.19,-70.48 -31.43,-59.85z"/>
  <path id="svg_52" opacity="0.1" d="m544.74,36.11c-14.24,-1.62 -16.2,23.27 -16,39.05c0.17,-15.69 2.81,-37 16,-35.49c14.81,1.69 17.24,26.66 17.41,40.8c0.17,-12.98 -1.25,-42.51 -17.41,-44.36z"/>
  <path id="svg_53" opacity="0.1" d="m511.54,85.32a159.38,159.38 0 0 1 -1.77,-20.53a152.12,152.12 0 0 0 1.77,24.09s10.08,6.52 17.78,2.37c0,0 -0.12,-1.28 -0.26,-3.43c-7.67,3.87 -17.52,-2.5 -17.52,-2.5z"/>
  <path id="svg_54" opacity="0.1" d="m577.35,83.59c-3.32,6.08 -13.83,3.41 -15.25,3c-0.07,2.2 -0.17,3.52 -0.17,3.52s11.86,3.55 15.42,-3c0.73,-1.34 1.11,-5.13 1,-10.2c-0.1,3.25 -0.45,5.68 -1,6.68z"/>
  <path id="svg_55" stroke-width="4" stroke-miterlimit="10" stroke="#3f3d56" fill="none" d="m826.73,672.96c4.74,-8.78 -0.64,-19.54 -6.82,-27.37s-13.73,-16 -13.57,-26c0.23,-14.35 15.45,-22.81 27.62,-30.42a134.77,134.77 0 0 0 24.79,-19.93c3,-3.05 5.87,-6.31 7.62,-10.21c2.52,-5.6 2.45,-12 2.29,-18.12q-0.79,-30.71 -3,-61.34"/>
  <path id="svg_56" fill="#953ffd" d="m888.74,478.49a22.31,22.31 0 0 0 -11.16,-18.32l-5,9.9l0.15,-12a22.37,22.37 0 1 0 16,20.41l0.01,0.01z"/>
  <path id="svg_57" fill="#953ffd" d="m848.86,629.88a22.36,22.36 0 1 1 1.08,-18l-14,11.37l15.37,-3.57a22.25,22.25 0 0 1 -2.45,10.2z"/>
  <path id="svg_58" fill="#953ffd" d="m837.81,586.45a22.37,22.37 0 0 1 -7.09,-43.86l-0.12,9.22l5.06,-10l0.06,0a22.37,22.37 0 1 1 2.09,44.69l0,-0.05z"/>
  <path id="svg_59" fill="#953ffd" d="m892.11,550.32a22.37,22.37 0 1 1 9.89,-41.86l-4,10.83l8.13,-7.8a22.37,22.37 0 0 1 -14.07,38.83l0.05,0z"/>
  <path id="svg_60" opacity="0.1" d="m885.74,484.45c-5.17,0.57 -10.19,2.18 -15.37,2.5s-10.87,-0.92 -14.14,-5c-1.77,-2.17 -2.65,-4.91 -4.14,-7.28a16,16 0 0 0 -5.63,-5.3a22.37,22.37 0 1 0 41.81,14.84c-0.85,0.09 -1.69,0.15 -2.53,0.24z"/>
  <path id="svg_61" opacity="0.1" d="m892.11,550.32a22.39,22.39 0 0 1 -21.28,-31.91a16.37,16.37 0 0 1 4.5,4.51c1.59,2.4 2.56,5.18 4.43,7.39c3.48,4.09 9.44,5.43 14.84,5.19s10.6,-1.78 16,-2.28c0.75,-0.06 1.5,-0.11 2.26,-0.13a22.37,22.37 0 0 1 -20.75,17.23z"/>
  <path id="svg_62" opacity="0.1" d="m837.81,586.45a22.37,22.37 0 0 1 -21.46,-31.49a17.83,17.83 0 0 1 4.73,4.55c1.74,2.45 2.82,5.27 4.86,7.54c3.77,4.2 10.11,5.68 15.83,5.54c5.54,-0.12 10.87,-1.48 16.38,-1.9a22.36,22.36 0 0 1 -20.34,15.76z"/>
  <path id="svg_63" opacity="0.1" d="m848.86,629.88a22.37,22.37 0 0 1 -40.78,-18.29a22.27,22.27 0 0 1 4.91,4.38c2.13,2.59 3.53,5.53 6,7.94c4.57,4.49 11.95,6.34 18.52,6.51a97.1,97.1 0 0 0 11.35,-0.54z"/>
  <path id="svg_64" fill="#656380" d="m793,662.85s17.65,-0.54 23,-4.33s27.16,-8.31 28.48,-2.24s26.53,30.22 6.6,30.38s-46.31,-3.1 -51.62,-6.34s-6.46,-17.47 -6.46,-17.47z"/>
  <path id="svg_65" opacity="0.2" d="m851.4,684.59c-19.93,0.16 -46.31,-3.11 -51.62,-6.34c-4,-2.47 -5.65,-11.3 -6.19,-15.38l-0.59,0s1.12,14.24 6.43,17.47s31.69,6.5 51.62,6.34c5.75,0 7.74,-2.09 7.63,-5.12c-0.8,1.81 -2.99,2.95 -7.28,3.03z"/>
  <path id="svg_66" fill="#f2f2f2" d="m323,42.86l-18.25,11.57l11.08,-20.15a18,18 0 0 0 -11,-3.94l-0.3,0a21.58,21.58 0 0 1 -3.78,-0.28l-6.19,3.92l2.65,-4.82a22.06,22.06 0 0 1 -10.82,-8.21l-11.07,7l7,-12.72c-6.48,-7.77 -15.2,-12.54 -24.81,-12.54c-11.51,0 -21.76,6.85 -28.38,17.52a21.24,21.24 0 0 1 -18.76,10.12l-0.62,0c-12.71,0 -23,14.41 -23,32.19s10.3,32.18 23,32.18a17.2,17.2 0 0 0 8,-2c8.29,-4.31 19.17,-4.39 27.85,-0.54a29,29 0 0 0 23.68,0.05c8.62,-3.77 19.37,-3.69 27.61,0.54a17.23,17.23 0 0 0 7.93,2c12.71,0 23,-14.41 23,-32.18a40.86,40.86 0 0 0 -4.82,-19.71z"/>
  <path id="svg_67" opacity="0.03" d="m288.59,89.95a34,34 0 0 0 -19.72,2.14a29,29 0 0 1 -23.67,-0.05c-8.69,-3.85 -19.57,-3.77 -27.86,0.54a17.2,17.2 0 0 1 -8,2c-11.29,0 -20.68,-11.38 -22.64,-26.38a21.58,21.58 0 0 0 5.64,-6.08c6.66,-10.66 16.87,-17.53 28.38,-17.53s21.64,6.77 28.26,17.32a21.79,21.79 0 0 0 18.76,10.31l0.26,0c9,0.01 16.8,7.22 20.59,17.73z"/>
  <path id="svg_68" fill="#f2f2f2" d="m800.07,66.42l-9.07,5.77l5.53,-10a9,9 0 0 0 -5.51,-2l-0.14,0a10.79,10.79 0 0 1 -1.89,-0.14l-3.09,2l1.3,-2.46a11,11 0 0 1 -5.4,-4.09l-5.52,3.5l3.49,-6.34a16.17,16.17 0 0 0 -12.37,-6.26c-5.75,0 -10.86,3.42 -14.16,8.74a10.57,10.57 0 0 1 -9.36,5l-0.31,0c-6.34,0 -11.48,7.19 -11.48,16s5.14,16.05 11.48,16.05a8.62,8.62 0 0 0 4,-1a16.56,16.56 0 0 1 13.89,-0.27a14.52,14.52 0 0 0 11.81,0a16.58,16.58 0 0 1 13.77,0.27a8.61,8.61 0 0 0 4,1c6.34,0 11.48,-7.18 11.48,-16.05a20.28,20.28 0 0 0 -2.45,-9.72z"/>
  <path id="svg_69" opacity="0.03" d="m782.92,89.91a17,17 0 0 0 -9.83,1.07a14.52,14.52 0 0 1 -11.81,0a16.58,16.58 0 0 0 -13.9,0.27a8.55,8.55 0 0 1 -4,1c-5.64,0 -10.32,-5.67 -11.3,-13.15a10.93,10.93 0 0 0 2.82,-3c3.3,-5.32 8.42,-8.73 14.16,-8.73s10.79,3.37 14.09,8.63a10.85,10.85 0 0 0 9.36,5.14l0.15,0c4.49,-0.07 8.34,3.53 10.26,8.77z"/>
  <path id="svg_70" fill="#f2f2f2" d="m204.34,215.86l14.66,9.28l-8.88,-16.15a14.48,14.48 0 0 1 8.85,-3.15l0.23,0a17.08,17.08 0 0 0 3,-0.22l4.95,3.14l-2.15,-3.86a17.78,17.78 0 0 0 8.67,-6.58l8.87,5.62l-5.54,-10.19c5.19,-6.22 12.18,-10 19.87,-10c9.23,0 17.44,5.48 22.75,14a17,17 0 0 0 15,8.11l0.5,0c10.18,0 18.43,11.54 18.43,25.78s-8.25,25.79 -18.43,25.79a13.86,13.86 0 0 1 -6.43,-1.61a26.59,26.59 0 0 0 -22.31,-0.43a23.28,23.28 0 0 1 -19,0a26.64,26.64 0 0 0 -22.12,0.43a13.9,13.9 0 0 1 -6.35,1.57c-10.19,0 -18.44,-11.54 -18.44,-25.79a32.78,32.78 0 0 1 3.87,-15.74z"/>
  <path id="svg_71" opacity="0.03" d="m231.89,253.59a27.36,27.36 0 0 1 15.8,1.72a23.28,23.28 0 0 0 19,0a26.61,26.61 0 0 1 22.32,0.43a13.82,13.82 0 0 0 6.42,1.61c9.05,0 16.57,-9.11 18.14,-21.13a17.44,17.44 0 0 1 -4.52,-4.88c-5.31,-8.54 -13.52,-14 -22.75,-14s-17.33,5.42 -22.64,13.88a17.44,17.44 0 0 1 -15,8.25l-0.23,0c-7.26,-0.07 -13.5,5.71 -16.54,14.12z"/>
 </g>
</svg>